<svg width="28" height="28" viewBox="0 0 28 28" fill="none" xmlns="http://www.w3.org/2000/svg">
<path d="M26.775 15.4687L15.225 27.0187C15.05 27.1937 14.8604 27.318 14.6562 27.3915C14.4521 27.4638 14.2333 27.5 14 27.5C13.7667 27.5 13.5479 27.4638 13.3437 27.3915C13.1396 27.318 12.95 27.1937 12.775 27.0187L1.22499 15.4687C0.904158 15.1479 0.736159 14.7472 0.720992 14.2665C0.706992 13.7847 0.874992 13.3687 1.22499 13.0187C1.54582 12.6687 1.94658 12.4862 2.42724 12.471C2.90908 12.457 3.32499 12.625 3.67499 12.975L12.25 21.55L12.25 1.99375C12.25 1.49791 12.4174 1.082 12.7522 0.745999C13.0882 0.411165 13.5042 0.243748 14 0.243748C14.4958 0.243748 14.9112 0.411165 15.246 0.745999C15.582 1.082 15.75 1.49791 15.75 1.99375L15.75 21.55L24.325 12.975C24.6458 12.6542 25.0542 12.4862 25.55 12.471C26.0458 12.457 26.4542 12.625 26.775 12.975C27.125 13.2958 27.3 13.7042 27.3 14.2C27.3 14.6958 27.125 15.1187 26.775 15.4687Z" fill="white"/>
</svg>
