<svg width="189" height="61" viewBox="0 0 189 61" fill="none" xmlns="http://www.w3.org/2000/svg">
<mask id="mask0_364_250" style="mask-type:alpha" maskUnits="userSpaceOnUse" x="21" y="10" width="40" height="41">
<rect x="21" y="10.5" width="40" height="40" fill="#D9D9D9"/>
</mask>
<g mask="url(#mask0_364_250)">
<path d="M36.792 39.75C36.6254 39.75 36.4587 39.7223 36.292 39.667C36.1254 39.611 35.9724 39.5137 35.833 39.375L28.417 31.958C28.139 31.6807 28.007 31.3407 28.021 30.938C28.035 30.5347 28.167 30.1943 28.417 29.917C28.6944 29.667 29.0207 29.542 29.396 29.542C29.7707 29.542 30.097 29.667 30.375 29.917L36.792 36.375L51.583 21.583C51.861 21.3057 52.1944 21.167 52.583 21.167C52.9724 21.167 53.3057 21.3057 53.583 21.583C53.861 21.833 54 22.1597 54 22.563C54 22.9657 53.861 23.292 53.583 23.542L37.792 39.375C37.6254 39.5137 37.4654 39.611 37.312 39.667C37.1594 39.7223 36.986 39.75 36.792 39.75Z" fill="#70E5D0"/>
</g>
<path d="M62.6366 30.577C62.6366 28.741 63.0506 27.094 63.8786 25.636C64.7066 24.16 65.8316 23.008 67.2536 22.18C68.6936 21.352 70.2866 20.938 72.0326 20.938C74.0846 20.938 75.8756 21.433 77.4056 22.423C78.9356 23.413 80.0516 24.817 80.7536 26.635H77.8106C77.2886 25.501 76.5326 24.628 75.5426 24.016C74.5706 23.404 73.4006 23.098 72.0326 23.098C70.7186 23.098 69.5396 23.404 68.4956 24.016C67.4516 24.628 66.6326 25.501 66.0386 26.635C65.4446 27.751 65.1476 29.065 65.1476 30.577C65.1476 32.071 65.4446 33.385 66.0386 34.519C66.6326 35.635 67.4516 36.499 68.4956 37.111C69.5396 37.723 70.7186 38.029 72.0326 38.029C73.4006 38.029 74.5706 37.732 75.5426 37.138C76.5326 36.526 77.2886 35.653 77.8106 34.519H80.7536C80.0516 36.319 78.9356 37.714 77.4056 38.704C75.8756 39.676 74.0846 40.162 72.0326 40.162C70.2866 40.162 68.6936 39.757 67.2536 38.947C65.8316 38.119 64.7066 36.976 63.8786 35.518C63.0506 34.06 62.6366 32.413 62.6366 30.577ZM90.864 40.243C89.478 40.243 88.218 39.928 87.084 39.298C85.968 38.668 85.086 37.777 84.438 36.625C83.808 35.455 83.493 34.105 83.493 32.575C83.493 31.063 83.817 29.731 84.465 28.579C85.131 27.409 86.031 26.518 87.165 25.906C88.299 25.276 89.568 24.961 90.972 24.961C92.376 24.961 93.645 25.276 94.779 25.906C95.913 26.518 96.804 27.4 97.452 28.552C98.118 29.704 98.451 31.045 98.451 32.575C98.451 34.105 98.109 35.455 97.425 36.625C96.759 37.777 95.85 38.668 94.698 39.298C93.546 39.928 92.268 40.243 90.864 40.243ZM90.864 38.083C91.746 38.083 92.574 37.876 93.348 37.462C94.122 37.048 94.743 36.427 95.211 35.599C95.697 34.771 95.94 33.763 95.94 32.575C95.94 31.387 95.706 30.379 95.238 29.551C94.77 28.723 94.158 28.111 93.402 27.715C92.646 27.301 91.827 27.094 90.945 27.094C90.045 27.094 89.217 27.301 88.461 27.715C87.723 28.111 87.129 28.723 86.679 29.551C86.229 30.379 86.004 31.387 86.004 32.575C86.004 33.781 86.22 34.798 86.652 35.626C87.102 36.454 87.696 37.075 88.434 37.489C89.172 37.885 89.982 38.083 90.864 38.083ZM104.139 27.931C104.625 27.085 105.345 26.383 106.299 25.825C107.271 25.249 108.396 24.961 109.674 24.961C110.988 24.961 112.176 25.276 113.238 25.906C114.318 26.536 115.164 27.427 115.776 28.579C116.388 29.713 116.694 31.036 116.694 32.548C116.694 34.042 116.388 35.374 115.776 36.544C115.164 37.714 114.318 38.623 113.238 39.271C112.176 39.919 110.988 40.243 109.674 40.243C108.414 40.243 107.298 39.964 106.326 39.406C105.372 38.83 104.643 38.119 104.139 37.273V47.02H101.682V25.204H104.139V27.931ZM114.183 32.548C114.183 31.432 113.958 30.46 113.508 29.632C113.058 28.804 112.446 28.174 111.672 27.742C110.916 27.31 110.079 27.094 109.161 27.094C108.261 27.094 107.424 27.319 106.65 27.769C105.894 28.201 105.282 28.84 104.814 29.686C104.364 30.514 104.139 31.477 104.139 32.575C104.139 33.691 104.364 34.672 104.814 35.518C105.282 36.346 105.894 36.985 106.65 37.435C107.424 37.867 108.261 38.083 109.161 38.083C110.079 38.083 110.916 37.867 111.672 37.435C112.446 36.985 113.058 36.346 113.508 35.518C113.958 34.672 114.183 33.682 114.183 32.548ZM121.197 22.801C120.729 22.801 120.333 22.639 120.009 22.315C119.685 21.991 119.523 21.595 119.523 21.127C119.523 20.659 119.685 20.263 120.009 19.939C120.333 19.615 120.729 19.453 121.197 19.453C121.647 19.453 122.025 19.615 122.331 19.939C122.655 20.263 122.817 20.659 122.817 21.127C122.817 21.595 122.655 21.991 122.331 22.315C122.025 22.639 121.647 22.801 121.197 22.801ZM122.385 25.204V40H119.928V25.204H122.385ZM140.072 32.035C140.072 32.503 140.045 32.998 139.991 33.52H128.165C128.255 34.978 128.75 36.121 129.65 36.949C130.568 37.759 131.675 38.164 132.971 38.164C134.033 38.164 134.915 37.921 135.617 37.435C136.337 36.931 136.841 36.265 137.129 35.437H139.775C139.379 36.859 138.587 38.02 137.399 38.92C136.211 39.802 134.735 40.243 132.971 40.243C131.567 40.243 130.307 39.928 129.191 39.298C128.093 38.668 127.229 37.777 126.599 36.625C125.969 35.455 125.654 34.105 125.654 32.575C125.654 31.045 125.96 29.704 126.572 28.552C127.184 27.4 128.039 26.518 129.137 25.906C130.253 25.276 131.531 24.961 132.971 24.961C134.375 24.961 135.617 25.267 136.697 25.879C137.777 26.491 138.605 27.337 139.181 28.417C139.775 29.479 140.072 30.685 140.072 32.035ZM137.534 31.522C137.534 30.586 137.327 29.785 136.913 29.119C136.499 28.435 135.932 27.922 135.212 27.58C134.51 27.22 133.727 27.04 132.863 27.04C131.621 27.04 130.559 27.436 129.677 28.228C128.813 29.02 128.318 30.118 128.192 31.522H137.534ZM142.397 32.548C142.397 31.036 142.703 29.713 143.315 28.579C143.927 27.427 144.764 26.536 145.826 25.906C146.906 25.276 148.112 24.961 149.444 24.961C150.596 24.961 151.667 25.231 152.657 25.771C153.647 26.293 154.403 26.986 154.925 27.85V20.02H157.409V40H154.925V37.219C154.439 38.101 153.719 38.83 152.765 39.406C151.811 39.964 150.695 40.243 149.417 40.243C148.103 40.243 146.906 39.919 145.826 39.271C144.764 38.623 143.927 37.714 143.315 36.544C142.703 35.374 142.397 34.042 142.397 32.548ZM154.925 32.575C154.925 31.459 154.7 30.487 154.25 29.659C153.8 28.831 153.188 28.201 152.414 27.769C151.658 27.319 150.821 27.094 149.903 27.094C148.985 27.094 148.148 27.31 147.392 27.742C146.636 28.174 146.033 28.804 145.583 29.632C145.133 30.46 144.908 31.432 144.908 32.548C144.908 33.682 145.133 34.672 145.583 35.518C146.033 36.346 146.636 36.985 147.392 37.435C148.148 37.867 148.985 38.083 149.903 38.083C150.821 38.083 151.658 37.867 152.414 37.435C153.188 36.985 153.8 36.346 154.25 35.518C154.7 34.672 154.925 33.691 154.925 32.575ZM164.747 21.181L164.45 34.681H162.398L162.101 21.181H164.747ZM163.532 40.162C163.064 40.162 162.668 40 162.344 39.676C162.02 39.352 161.858 38.956 161.858 38.488C161.858 38.02 162.02 37.624 162.344 37.3C162.668 36.976 163.064 36.814 163.532 36.814C163.982 36.814 164.36 36.976 164.666 37.3C164.99 37.624 165.152 38.02 165.152 38.488C165.152 38.956 164.99 39.352 164.666 39.676C164.36 40 163.982 40.162 163.532 40.162Z" fill="#70E5D0"/>
<rect x="0.5" y="0.5" width="188" height="60" rx="30" stroke="#70E6D0"/>
</svg>
