<svg width="64" height="64" viewBox="0 0 64 64" fill="none" xmlns="http://www.w3.org/2000/svg">
<rect width="64" height="64" rx="16" fill="#101C50"/>
<g clip-path="url(#clip0_644_304)">
<path d="M29.3541 37.4296C29.384 37.4341 29.393 37.4341 29.4215 37.4386C29.9396 37.5106 30.4487 37.605 30.8395 37.7788C31.2004 37.9406 31.413 38.1399 31.6032 38.501C31.8967 39.0449 31.9176 39.8091 31.6496 40.3904C31.4504 40.819 31.0177 41.1801 30.6179 41.3719C30.2061 41.5711 29.7988 41.6685 29.3316 41.7195C28.517 41.8094 27.6336 41.6386 26.8999 41.2864C26.4671 41.0737 25.937 40.7096 25.669 40.2376C25.4743 39.893 25.4773 39.4435 25.7199 39.1168C26.1017 38.5939 26.9163 38.48 27.5318 38.501C28.0034 38.5175 28.848 38.6628 29.2882 38.8231C29.411 38.8696 29.8647 39.0434 29.9456 39.1243C30.001 39.1797 30.0384 39.2651 30.0129 39.3416C29.9111 39.6517 29.1549 39.8165 28.9348 39.851C28.3493 39.9409 28.0484 39.7192 27.382 39.4554C27.2158 39.391 26.9957 39.3191 26.831 39.3026C26.53 39.2726 26.1646 39.358 26.1047 39.6892C26.0748 39.8585 26.2739 40.0158 26.4267 40.0848C26.7831 40.2376 27.0721 40.293 27.4239 40.2975C28.4601 40.314 29.6266 40.1447 30.4756 39.5408C30.5909 39.4554 30.7047 39.3371 30.7092 39.1842C30.7137 38.8741 30.1702 38.6868 30.1702 38.6868C29.5967 38.4485 28.544 38.3347 28.0019 38.2882C27.4329 38.2373 26.533 38.1653 26.3174 38.1309C26.0972 38.1009 25.8547 38.0545 25.663 37.9691C25.4713 37.8792 25.2812 37.6844 25.2258 37.4716C25.1284 37.0805 25.2512 36.6055 25.4683 36.2909C26.0374 35.4758 27.361 35.1656 28.3538 35.0427C29.3137 34.9244 30.8665 34.9244 31.8083 35.4248C31.9521 35.5012 32.0284 35.5732 32 35.7305C31.9401 36.0242 31.72 36.21 31.4519 36.2954C31.1719 36.3853 30.5939 36.4182 30.3394 36.4362C29.2013 36.5007 27.8312 36.4662 26.7486 36.7629C26.6633 36.7883 26.515 36.8273 26.4686 36.8812C26.2994 37.064 26.7831 37.1195 26.8894 37.1405C26.9193 37.1494 26.9283 37.1494 26.9568 37.1524L29.3511 37.4326M22.5903 32.3622C22.5903 32.3622 22.7775 32.0865 22.9303 31.8737C23.2103 31.4916 23.7239 30.9612 24.1057 30.63C24.224 30.5282 24.3603 30.4173 24.3603 30.4173C24.3603 30.4173 24.1431 30.4383 24.0204 30.4637C23.7269 30.5192 23.3031 30.8039 23.086 30.9897C22.7341 31.2908 22.3478 31.7838 22.5215 32.2168C22.5469 32.2812 22.5859 32.3607 22.5859 32.3607M24.5474 32.8866C25.103 32.8476 25.6256 32.6873 26.1137 32.4191C26.5884 32.1509 27.2892 31.634 27.2173 31.0211C27.1963 30.8218 27.0646 30.6735 26.9028 30.6046C26.6902 30.5117 26.5809 30.5282 26.3084 30.6091C26.1137 30.669 26.0239 30.702 25.8367 30.8083C25.2887 31.1275 24.516 31.8063 24.0967 32.3502C23.9994 32.4775 23.9021 32.6214 23.8257 32.7203C23.7793 32.7802 23.7403 32.8356 23.7448 32.8521C23.7613 32.9121 24.3348 32.9076 24.5549 32.8941M23.1369 33.9339C23.077 33.9939 23.0186 34.1422 22.9542 34.2486C22.9198 34.304 22.8569 34.3805 22.8179 34.4059C22.6742 34.5123 22.5499 34.5168 22.4107 34.3924C22.216 34.2186 22.1007 33.9504 22.0917 33.6867C22.0872 33.5713 22.1082 33.444 22.0872 33.3511C22.0528 33.1893 21.8881 33.0199 21.8027 32.8671C21.7009 32.6843 21.6155 32.3667 21.6081 32.1584C21.5736 31.5171 21.909 30.9267 22.3508 30.4592C22.7925 29.9872 23.369 29.5977 24.0024 29.3295C24.5969 29.0792 25.4668 28.9084 26.1197 29.1347C26.3323 29.2066 26.6288 29.3894 26.7771 29.5767C26.807 29.6156 26.837 29.6576 26.8669 29.6786C26.8969 29.6951 26.9732 29.704 27.0331 29.7175C27.2413 29.7565 27.5422 29.9123 27.665 30.0142C27.9106 30.227 28.0469 30.4308 28.1068 30.7229C28.2295 31.3178 27.8896 31.9666 27.5003 32.3622C26.834 33.0424 26.1766 33.5219 25.3276 33.8575C24.9547 34.0014 24.3722 34.1422 23.9485 34.1033C23.8167 34.0913 23.6804 34.0568 23.5532 34.0478C23.4888 34.0433 23.2477 33.9804 23.2222 33.9624C23.1923 33.9369 23.1504 33.916 23.1414 33.9235M23.9006 35.2405C23.926 35.245 23.9679 35.257 24.0024 35.2705C24.2989 35.3859 24.4232 35.6616 24.4995 35.9627C24.6687 36.6685 24.7421 38.2268 24.7706 38.8381C24.7915 39.2966 24.805 39.7476 24.8215 40.2016C24.8379 40.5837 24.8679 41.0932 24.787 41.4543C24.7571 41.5816 24.6717 41.7345 24.5489 41.8109C24.4082 41.9008 24.0862 41.9083 23.9081 41.8708C23.4708 41.7809 23.3316 41.4977 23.2672 41.0677C23.1189 40.0353 23.1908 38.0095 23.2791 37.1554C23.3091 36.8752 23.4154 35.9702 23.5637 35.5881C23.6146 35.4608 23.7209 35.2016 23.9081 35.2405M10.6112 36.9562C10.6112 36.9562 9.96131 37.0026 9.51209 37.0536C8.94308 37.1135 7.87394 37.2993 7.25402 37.521C7.06685 37.5885 6.69399 37.7458 6.65955 37.9376C6.62511 38.1369 6.7494 38.2897 6.88416 38.4515C6.96502 38.5444 7.40975 38.9745 7.53403 39.0793C8.05962 39.5169 9.12127 40.1926 9.90591 40.5238C10.1739 40.6347 10.6187 40.795 10.6187 40.795C10.6187 40.795 10.5842 39.5244 10.5932 38.2762C10.5977 37.6184 10.6097 36.9637 10.6097 36.9637M22.5364 37.4686C22.5754 37.8087 22.4855 38.4545 22.472 38.5384C22.4421 38.7332 22.2984 39.1842 22.2729 39.2397C22.1546 39.5154 22.0348 39.7401 21.912 39.9619C21.6994 40.344 21.1903 40.9553 20.8893 41.2145C19.7693 42.1825 18.0368 42.7354 16.5469 42.9182C15.5361 43.041 14.3786 43.0246 13.308 42.8253C12.9381 42.7578 12.3916 42.6305 12.3916 42.6305C12.3916 42.6305 12.3916 42.8507 12.3751 43.0036C12.3661 43.0755 12.3152 43.2583 12.2853 43.3182C12.2089 43.4801 12.0816 43.561 11.8944 43.5984C11.6698 43.6404 11.4318 43.6539 11.2236 43.564C10.8837 43.4201 10.7609 43.101 10.701 42.7354C10.6546 42.4417 10.6037 41.9322 10.6037 41.9322C10.6037 41.9322 10.3491 41.8139 10.1365 41.7075C9.48664 41.3853 8.86821 40.9988 8.32466 40.5987C8.17642 40.4878 7.53104 39.9484 7.38729 39.8135C6.98898 39.436 6.6311 39.0569 6.35558 38.5729C6.14295 38.1953 6.08455 37.8597 6.24478 37.4596C6.46489 36.9037 7.2675 36.4827 7.81554 36.2414C8.21834 36.0631 9.46717 35.6556 9.98377 35.5792C10.2293 35.5447 10.6082 35.4773 10.6336 35.4608C10.6426 35.4518 10.6501 35.4488 10.6546 35.4398C10.6681 35.4233 10.689 34.8704 10.6846 34.6667C10.6801 34.4674 10.8328 33.1638 10.8792 32.8866C10.9047 32.7382 11.02 32.1644 11.1338 32.0115C11.2101 31.9097 11.3419 31.9186 11.4527 31.9861C12.0472 32.3562 12.2299 33.6388 12.2718 34.2921C12.2972 34.6906 12.3107 35.29 12.3107 35.29C12.3107 35.29 12.9935 35.269 13.4143 35.281C13.8216 35.29 14.2723 35.3529 14.6961 35.4218C15.2396 35.5072 16.2968 35.741 16.8987 36.0466C17.3989 36.3014 17.8661 36.7269 18.0143 37.1764C18.1551 37.5885 18.1326 37.8777 17.9215 38.2508C17.6789 38.6718 17.2252 38.985 16.7625 39.0104C16.6262 39.0194 16.1096 38.9505 15.9479 38.8276C15.8835 38.7767 15.888 38.6913 15.9344 38.6283C15.9509 38.6074 16.1935 38.48 16.3372 38.4036C16.4091 38.3646 16.469 38.3227 16.5244 38.2717C16.6427 38.1653 16.749 38.0515 16.737 37.9196C16.7206 37.7458 16.5379 37.6349 16.3597 37.5675C15.5316 37.2409 13.8815 36.9651 13.0834 36.9172C12.7689 36.9007 12.3272 36.8827 12.3272 36.8827L12.42 41.2909C12.42 41.2909 12.7899 41.3584 13.0774 41.4093C13.2436 41.4348 13.9474 41.4992 14.1346 41.5022C15.5601 41.5412 17.1473 41.4123 18.4545 40.7965C19.028 40.5253 19.5536 40.1896 19.9534 39.7341C20.479 39.1318 20.756 38.3077 20.6797 37.4446C20.5988 36.5066 19.937 35.3889 19.4114 34.7056C18.0143 32.9091 15.6215 31.4317 13.5161 30.5641C11.3689 29.6801 9.24256 29.1706 6.96353 29.0867C6.37355 29.0657 5.09178 29.0957 4.4464 29.274C4.35356 29.2995 4.25923 29.334 4.17537 29.3504C4.10799 29.3669 4.00168 29.4149 3.97173 29.4358C3.95526 29.4478 3.93729 29.4658 3.93729 29.4658C3.93729 29.4658 3.97622 29.4868 4.01366 29.5048C4.08104 29.5347 4.37004 29.5512 4.52277 29.5812C4.65903 29.6067 4.7938 29.6741 4.8492 29.776C4.90011 29.8689 4.9091 29.9423 4.84471 30.0217C4.69647 30.2 4.14393 30.17 3.90285 30.1326C3.64829 30.0936 3.33384 30.0142 3.27843 29.7925C3.21105 29.5332 3.33384 29.2785 3.4701 29.0448C3.73814 28.5728 4.11997 28.3315 4.68 28.1742C5.47811 27.954 6.48436 27.8011 7.23455 27.7712C8.93709 27.7067 10.5498 28.0049 12.1999 28.5054C13.1418 28.79 14.3816 29.2695 15.2861 29.707C15.9359 30.0217 16.9586 30.5941 17.5351 30.9732C17.7178 31.0915 18.778 31.8737 18.9397 32.01C19.2841 32.2902 19.7333 32.6933 20.0597 33.0214C20.6872 33.6463 21.4733 34.6052 21.8551 35.3619C21.948 35.5447 22.0168 35.723 22.1351 35.9358C22.1771 36.0077 22.3523 36.4407 22.3777 36.5636C22.4077 36.6865 22.4496 36.8693 22.4541 36.8782C22.4631 36.9457 22.5439 37.3158 22.5349 37.4596M43.9432 36.4827C43.1451 36.6655 41.0487 36.7674 41.0487 36.7674L40.7852 37.596C40.7852 37.596 41.8334 37.5061 42.597 37.587C42.597 37.587 42.8426 37.557 42.8726 37.8672C42.8816 38.1564 42.8471 38.4665 42.8471 38.4665C42.8471 38.4665 42.8306 38.6538 42.5671 38.7003C42.2781 38.7467 40.309 38.8231 40.309 38.8231L39.9901 39.902C39.9901 39.902 39.8718 40.1522 40.1383 40.0803C40.3839 40.0128 42.4518 39.6263 42.7183 39.6817C43.0073 39.7536 43.3248 40.1357 43.2319 40.4893C43.1211 40.9223 41.0592 42.2394 39.8074 42.145C39.8074 42.145 39.15 42.187 38.59 41.2954C38.0719 40.4459 38.7847 38.8411 38.7847 38.8411C38.7847 38.8411 38.4582 38.0889 38.6948 37.8342C38.6948 37.8342 38.8356 37.7068 39.2504 37.6769L39.755 36.6325C39.755 36.6325 39.1785 36.6715 38.8386 36.2504C38.5196 35.8474 38.4942 35.6646 38.7368 35.5537C39.0003 35.4263 41.3931 34.9888 43.0448 35.0442C43.0448 35.0442 43.6183 34.9888 44.1139 35.9822C44.1139 35.9822 44.3565 36.3853 43.9447 36.4827M37.7395 40.5043C37.5269 41.0018 36.9713 41.5322 36.275 41.201C35.5922 40.8699 34.5006 38.6358 34.5006 38.6358C34.5006 38.6358 34.0844 37.8027 34.008 37.8252C34.008 37.8252 33.9181 37.6634 33.8642 38.5729C33.8088 39.4779 33.8777 41.249 33.5124 41.5247C33.1679 41.8049 32.7562 41.694 32.5405 41.3674C32.3459 41.0452 32.265 40.284 32.3713 38.943C32.4986 37.6005 32.8086 36.174 33.2069 35.7275C33.6052 35.2855 33.9241 35.6046 34.0469 35.723C34.0469 35.723 34.577 36.207 35.456 37.6214L35.6087 37.8851C35.6087 37.8851 36.4068 39.2232 36.4877 39.2187C36.4877 39.2187 36.5521 39.2786 36.6105 39.2352C36.6958 39.2097 36.6614 38.7812 36.6614 38.7812C36.6614 38.7812 36.4952 37.3248 35.7704 34.8524C35.7704 34.8524 35.6596 34.5468 35.736 34.2576C35.8079 33.9639 36.1013 34.1048 36.1013 34.1048C36.1013 34.1048 37.2304 34.6741 37.7739 36.5081C38.3175 38.3422 37.9521 39.9993 37.735 40.5043M49.8654 39.4045C49.3518 40.3005 47.9038 42.1735 45.9782 41.7315C45.3418 43.2733 44.8072 44.8316 44.5047 47.1675C44.5047 47.1675 44.4374 47.6216 44.0585 47.4642C43.6857 47.3324 43.0702 46.712 42.9459 45.855C42.8097 44.7252 43.3158 42.8178 44.343 40.6317C44.042 40.1432 43.8384 39.4465 44.0166 38.4575C44.0166 38.4575 44.2756 36.619 46.1219 34.9573C46.1219 34.9573 46.342 34.7655 46.4693 34.8255C46.6101 34.8854 46.5457 35.4833 46.4304 35.7724C46.3151 36.0616 45.493 37.4836 45.493 37.4836C45.493 37.4836 44.9794 38.447 45.1232 39.2037C46.0905 37.7128 48.2931 34.7101 49.6558 35.6571C50.114 35.9837 50.3266 36.6969 50.3266 37.4656C50.3266 38.1414 50.1649 38.8591 49.8639 39.3985M49.4656 37.0371C49.4656 37.0371 49.3892 36.4467 48.8112 37.097C48.3141 37.6484 47.4142 38.6808 46.6939 40.0833C47.4531 39.9978 48.1838 39.5858 48.4039 39.3775C48.7648 39.0584 49.6004 38.1923 49.4656 37.0416M60.467 36.9052H56.9406C56.8687 35.708 56.7235 34.5348 56.4989 33.3331C56.4734 33.2102 56.3671 33.1158 56.2398 33.1158H55.4252C55.3534 33.1158 55.289 33.1458 55.2426 33.2057C55.1961 33.2612 55.1782 33.3331 55.1916 33.405C55.4207 34.5693 55.569 35.7155 55.6409 36.9082H52.2448C52.0875 36.9082 51.9558 37.0356 51.9558 37.1929V37.9271C51.9558 38.0844 52.0831 38.2163 52.2448 38.2163H55.6873C55.6918 38.3991 55.6918 38.5609 55.6918 38.7137C55.6918 39.7716 55.6454 40.6421 55.539 41.6266C55.5301 41.703 55.5555 41.7794 55.6064 41.8349C55.6573 41.8903 55.7292 41.9248 55.8011 41.9248H56.5573C56.7055 41.9248 56.8253 41.8139 56.8418 41.6655C56.9436 40.6766 56.99 39.7926 56.99 38.7137C56.99 38.5609 56.99 38.3991 56.9855 38.2163H60.4655C60.6227 38.2163 60.75 38.0889 60.75 37.9271V37.1929C60.75 37.0356 60.6227 36.9037 60.461 36.9037H60.4655L60.467 36.9052Z" fill="white"/>
<path d="M13.2975 27.0803C13.2466 27.1567 13.2331 27.2466 13.2631 27.3305C13.293 27.416 13.3559 27.4789 13.4412 27.5089L14.0732 27.7216C14.1121 27.7336 14.1495 27.7381 14.1885 27.7381C14.3067 27.7381 14.4176 27.6782 14.4819 27.5808C16.5528 24.5361 19.3545 22.0008 22.5888 20.2507C25.925 18.4422 29.706 17.4863 33.5228 17.4863C38.1318 17.4863 42.5806 18.8453 46.387 21.424C50.1005 23.9337 52.983 27.4384 54.7274 31.5574C54.7784 31.6803 54.9011 31.7612 55.0329 31.7612H55.7891C55.8745 31.7612 55.9583 31.7193 56.0062 31.6458C56.0571 31.5739 56.0661 31.4795 56.0317 31.4001C54.2363 26.9739 51.1981 23.1995 47.242 20.489C43.19 17.711 38.4493 16.2456 33.5168 16.2456C25.368 16.2456 17.8092 20.2972 13.293 27.0848L13.2975 27.0803Z" fill="url(#paint0_linear_644_304)"/>
</g>
<rect x="0.5" y="0.5" width="63" height="63" rx="15.5" stroke="#A18BC4" stroke-opacity="0.73"/>
<defs>
<linearGradient id="paint0_linear_644_304" x1="65.3175" y1="30.4968" x2="21.3523" y2="24.5638" gradientUnits="userSpaceOnUse">
<stop stop-color="#101C50"/>
<stop offset="0.24" stop-color="#0D267A"/>
<stop offset="0.5" stop-color="#085AA4"/>
<stop offset="0.65" stop-color="#058BBF"/>
<stop offset="1" stop-color="#B1FFFF"/>
</linearGradient>
<clipPath id="clip0_644_304">
<rect width="57.5" height="31.25" fill="white" transform="translate(3.25 16.25)"/>
</clipPath>
</defs>
</svg>
