<svg width='current' height="current" viewBox="0 0 117 25" fill="none" xmlns="http://www.w3.org/2000/svg">
<path d="M0.439453 24.1719C0.478516 23.957 0.541992 23.7715 0.629883 23.6152C0.708008 23.4688 0.771484 23.3027 0.820312 23.1172C1.00586 22.6777 1.20117 22.3164 1.40625 22.0332C1.44531 21.877 1.49902 21.7402 1.56738 21.623C1.63574 21.5059 1.70898 21.3984 1.78711 21.3008C1.89453 21.0371 1.9873 20.7783 2.06543 20.5244C2.14355 20.2705 2.24609 20.0215 2.37305 19.7773C2.60742 19.3281 2.84668 18.8643 3.09082 18.3857C3.33496 17.9072 3.57422 17.4336 3.80859 16.9648C3.86719 16.8574 3.92578 16.75 3.98438 16.6426C4.04297 16.5254 4.09668 16.4131 4.14551 16.3057C4.19434 16.1982 4.24805 16.0908 4.30664 15.9834C4.375 15.8662 4.44336 15.7539 4.51172 15.6465L4.62891 15.1777C4.67773 15.002 4.72656 14.8457 4.77539 14.709C4.75586 14.582 4.76562 14.4893 4.80469 14.4307L4.92188 14.2109L5.00977 13.8594C5.06836 13.625 5.14648 13.4346 5.24414 13.2881C5.33203 13.1514 5.41016 12.9707 5.47852 12.7461C5.53711 12.707 5.58594 12.6484 5.625 12.5703C5.66406 12.4922 5.70312 12.4141 5.74219 12.3359C5.82031 12.1211 5.89844 11.9111 5.97656 11.7061C6.05469 11.4912 6.13281 11.2812 6.21094 11.0762C6.28906 10.8711 6.36719 10.6611 6.44531 10.4463C6.52344 10.2314 6.60156 10.0117 6.67969 9.78711C6.78711 9.5332 6.875 9.34277 6.94336 9.21582C7.02148 9.0791 7.08008 8.91797 7.11914 8.73242C7.31445 8.2832 7.50977 7.83887 7.70508 7.39941C7.90039 6.95996 8.10547 6.51562 8.32031 6.06641C8.38867 5.90039 8.45703 5.74414 8.52539 5.59766C8.59375 5.45117 8.66211 5.31445 8.73047 5.1875C8.79883 5.04102 8.88672 4.88965 8.99414 4.7334C9.07227 4.61621 9.14062 4.47461 9.19922 4.30859C9.24805 4.19141 9.24805 4.06445 9.19922 3.92773C8.98438 3.9375 8.79395 4.00586 8.62793 4.13281C8.47168 4.25 8.28125 4.36719 8.05664 4.48438C8.00781 4.51367 7.9541 4.54785 7.89551 4.58691C7.84668 4.61621 7.79297 4.65039 7.73438 4.68945C7.67578 4.77734 7.62207 4.83105 7.57324 4.85059C7.53418 4.87012 7.5 4.89453 7.4707 4.92383C7.28516 5.03125 7.10449 5.15332 6.92871 5.29004C6.7627 5.41699 6.57227 5.53906 6.35742 5.65625C6.26953 5.73438 6.17676 5.81738 6.0791 5.90527C5.99121 5.9834 5.89844 6.06152 5.80078 6.13965C5.70312 6.21777 5.60547 6.30078 5.50781 6.38867C5.41992 6.4668 5.33203 6.54492 5.24414 6.62305C5.17578 6.75 5.04883 6.86719 4.86328 6.97461C4.76562 7.07227 4.67285 7.17969 4.58496 7.29688C4.49707 7.41406 4.4043 7.52148 4.30664 7.61914C4.28711 7.87305 4.22852 8.1123 4.13086 8.33691C4.0332 8.56152 3.93555 8.78125 3.83789 8.99609C3.7793 9.15234 3.73047 9.29883 3.69141 9.43555C3.76953 9.47461 3.84277 9.45996 3.91113 9.3916C3.97949 9.32324 4.05273 9.29883 4.13086 9.31836C4.41406 9.20117 4.64844 9.05469 4.83398 8.87891C5 8.72266 5.20508 8.55664 5.44922 8.38086C5.64453 8.22461 5.8252 8.04395 5.99121 7.83887C6.15723 7.63379 6.31836 7.42383 6.47461 7.20898C6.5625 7.12109 6.63086 7.04785 6.67969 6.98926C6.73828 6.93066 6.77734 6.8916 6.79688 6.87207C6.8457 6.82324 6.91406 6.79883 7.00195 6.79883C7.09961 6.88672 7.15332 6.95508 7.16309 7.00391C7.17285 7.02344 7.16797 7.0625 7.14844 7.12109C6.96289 7.57031 6.77734 7.93652 6.5918 8.21973C6.50391 8.34668 6.41602 8.4834 6.32812 8.62988C6.25 8.7666 6.17188 8.9082 6.09375 9.05469C5.88867 9.25977 5.73242 9.45996 5.625 9.65527C5.53711 9.82129 5.41992 9.99219 5.27344 10.168C5.17578 10.3438 5.07812 10.5146 4.98047 10.6807C4.88281 10.8467 4.75586 10.9785 4.59961 11.0762C4.24805 11.1543 3.97949 11.1494 3.79395 11.0615L3.31055 10.8418C3.27148 10.8125 3.19336 10.7881 3.07617 10.7686C2.97852 10.749 2.90039 10.7148 2.8418 10.666C2.74414 10.5488 2.67578 10.4658 2.63672 10.417C2.59766 10.3682 2.58789 10.3047 2.60742 10.2266C2.49023 10.1094 2.43164 9.91406 2.43164 9.64062C2.50977 9.43555 2.54395 9.32324 2.53418 9.30371C2.52441 9.28418 2.5293 9.25 2.54883 9.20117C2.55859 9.16211 2.58301 9.10352 2.62207 9.02539C2.66113 8.94727 2.68555 8.88867 2.69531 8.84961C2.72461 8.80078 2.74902 8.71777 2.76855 8.60059C2.78809 8.4834 2.8125 8.39062 2.8418 8.32227C2.90039 8.14648 3.00781 7.95117 3.16406 7.73633L3.2959 7.41406C3.3252 7.33594 3.36914 7.22852 3.42773 7.0918L3.57422 6.74023C3.62305 6.57422 3.64746 6.49121 3.64746 6.49121C3.66699 6.47168 3.68164 6.44727 3.69141 6.41797C3.75977 6.20312 3.82324 6.04688 3.88184 5.94922C3.93066 5.87109 3.95508 5.7832 3.95508 5.68555C4.43359 4.98242 5.03906 4.36719 5.77148 3.83984C6.04492 3.625 6.33301 3.41016 6.63574 3.19531C6.93848 2.98047 7.24609 2.77539 7.55859 2.58008C7.71484 2.42383 7.90039 2.27246 8.11523 2.12598C8.33008 1.97949 8.54492 1.83789 8.75977 1.70117C8.83789 1.66211 8.91602 1.61816 8.99414 1.56934C9.07227 1.52051 9.14551 1.47168 9.21387 1.42285C9.36035 1.31543 9.52148 1.24219 9.69727 1.20312C9.82422 1.16406 9.95117 1.17383 10.0781 1.23242C10.2734 1.34961 10.4004 1.40332 10.459 1.39355C10.498 1.38379 10.5469 1.38867 10.6055 1.4082C10.7227 1.44727 10.8203 1.53516 10.8984 1.67188C10.9766 1.80859 11.0352 1.92578 11.0742 2.02344C11.1328 2.14062 11.1963 2.27734 11.2646 2.43359C11.333 2.58984 11.3867 2.77539 11.4258 2.99023L11.4697 3.2832C11.4795 3.33203 11.4844 3.38086 11.4844 3.42969C11.4941 3.47852 11.5039 3.52734 11.5137 3.57617C11.5137 3.64453 11.5234 3.74707 11.543 3.88379C11.5625 4.02051 11.5723 4.11328 11.5723 4.16211C11.5527 4.33789 11.4941 4.51367 11.3965 4.68945C11.2988 4.86523 11.2109 5.02148 11.1328 5.1582C11.0645 5.29492 10.9961 5.43652 10.9277 5.58301C10.8691 5.71973 10.8154 5.85645 10.7666 5.99316C10.6689 6.2666 10.5371 6.54492 10.3711 6.82812C10.2539 6.98438 10.1953 7.07715 10.1953 7.10645C10.1953 7.13574 10.1855 7.16016 10.166 7.17969C10.0879 7.39453 10.0293 7.53613 9.99023 7.60449C9.9707 7.64355 9.95117 7.6875 9.93164 7.73633C9.91211 7.78516 9.89258 7.83398 9.87305 7.88281L9.56543 8.60059C9.5166 8.72754 9.46289 8.85449 9.4043 8.98145C9.35547 9.1084 9.30664 9.24023 9.25781 9.37695C9.36523 9.35742 9.45312 9.26953 9.52148 9.11328C9.62891 9.04492 9.72656 8.91797 9.81445 8.73242C9.91211 8.63477 9.99023 8.54688 10.0488 8.46875C10.0879 8.41992 10.1221 8.37109 10.1514 8.32227C10.1904 8.27344 10.2197 8.22949 10.2393 8.19043C10.2783 8.1123 10.3418 8.0293 10.4297 7.94141C10.6445 7.72656 10.8545 7.49219 11.0596 7.23828C11.2646 6.98438 11.4648 6.73047 11.6602 6.47656C11.9141 6.24219 12.1387 5.96387 12.334 5.6416C12.5293 5.31934 12.7051 4.99219 12.8613 4.66016C12.9785 4.5625 13.0908 4.46484 13.1982 4.36719C13.3057 4.26953 13.4082 4.15234 13.5059 4.01562C13.75 3.82031 14.0088 3.57129 14.2822 3.26855C14.5654 2.95605 14.7998 2.72168 14.9854 2.56543C15.2295 2.36035 15.498 2.19922 15.791 2.08203C16.084 1.96484 16.416 1.92578 16.7871 1.96484C16.8848 2.07227 16.9727 2.19922 17.0508 2.3457C17.1191 2.47266 17.2168 2.58984 17.3438 2.69727C17.5 3.08789 17.6318 3.50293 17.7393 3.94238C17.8467 4.38184 17.8906 4.88477 17.8711 5.45117C17.8223 5.62695 17.7588 5.78809 17.6807 5.93457C17.6025 6.07129 17.5391 6.25195 17.4902 6.47656L17.3877 6.74023C17.3779 6.7793 17.3633 6.82324 17.3438 6.87207C17.3242 6.91113 17.3047 6.95508 17.2852 7.00391C17.2461 7.12109 17.1924 7.24805 17.124 7.38477C17.0654 7.51172 16.9971 7.65332 16.9189 7.80957C16.7432 8.1416 16.6309 8.42969 16.582 8.67383C16.5332 8.72266 16.499 8.7959 16.4795 8.89355L16.4355 9.17188C16.3184 9.41602 16.2598 9.61621 16.2598 9.77246C16.2598 9.93848 16.2402 10.0801 16.2012 10.1973C16.1035 10.5488 16.0156 10.9004 15.9375 11.252C15.8594 11.6035 15.7812 11.9648 15.7031 12.3359C15.6641 12.4531 15.6348 12.5605 15.6152 12.6582C15.5957 12.7559 15.5762 12.8535 15.5566 12.9512C15.5176 13.0391 15.4834 13.1611 15.4541 13.3174C15.4248 13.4736 15.3906 13.5957 15.3516 13.6836C15.4102 13.6738 15.4688 13.6201 15.5273 13.5225C15.6055 13.4053 15.6641 13.3223 15.7031 13.2734L16.0107 12.8047C16.0596 12.7266 16.1084 12.6484 16.1572 12.5703C16.2158 12.4922 16.2695 12.4141 16.3184 12.3359C16.3965 12.2285 16.4697 12.1211 16.5381 12.0137C16.6162 11.9062 16.6895 11.8037 16.7578 11.7061C16.9043 11.4814 17.0508 11.2812 17.1973 11.1055C17.3926 10.8125 17.5439 10.5781 17.6514 10.4023C17.7588 10.2266 17.8613 10.041 17.959 9.8457C18.1152 9.68945 18.2422 9.5332 18.3398 9.37695C18.3887 9.29883 18.4424 9.2207 18.501 9.14258C18.5596 9.06445 18.623 8.98633 18.6914 8.9082C18.8086 8.66406 18.9355 8.42969 19.0723 8.20508C19.1699 8.03906 19.248 7.88281 19.3066 7.73633C19.4824 7.50195 19.6582 7.27734 19.834 7.0625C20.0098 6.84766 20.1953 6.63281 20.3906 6.41797C20.4785 6.33008 20.5566 6.25195 20.625 6.18359C20.7031 6.11523 20.7666 6.06152 20.8154 6.02246C20.8643 5.97363 20.918 5.92969 20.9766 5.89062C21.0352 5.8418 21.0938 5.79297 21.1523 5.74414C21.3965 5.43164 21.6895 5.12891 22.0312 4.83594C22.3047 4.45508 22.6318 4.1084 23.0127 3.7959C23.208 3.63965 23.3936 3.48828 23.5693 3.3418C23.7451 3.18555 23.916 3.0293 24.082 2.87305C24.2969 2.80469 24.4629 2.70215 24.5801 2.56543C24.6973 2.42871 24.8145 2.41406 24.9316 2.52148C25.127 2.36523 25.3027 2.31152 25.459 2.36035C25.6152 2.40918 25.7227 2.45312 25.7812 2.49219C26.0254 2.7168 26.1719 2.87305 26.2207 2.96094C26.2598 3.01953 26.2891 3.08789 26.3086 3.16602C26.3281 3.24414 26.3574 3.3125 26.3965 3.37109L26.5723 3.81055C26.5918 3.84961 26.6113 3.89355 26.6309 3.94238C26.6504 3.98145 26.6699 4.02539 26.6895 4.07422L26.8066 4.36719C26.8848 4.52344 26.958 4.70898 27.0264 4.92383C27.0947 5.13867 27.1191 5.35352 27.0996 5.56836C27.0898 5.61719 27.0801 5.6709 27.0703 5.72949C27.0605 5.77832 27.0508 5.83203 27.041 5.89062C27.0215 6.01758 26.9922 6.14453 26.9531 6.27148C26.9238 6.34961 26.8945 6.42285 26.8652 6.49121C26.8359 6.55957 26.8115 6.62793 26.792 6.69629L26.6602 7.0625C26.6406 7.11133 26.626 7.16016 26.6162 7.20898C26.6064 7.24805 26.5967 7.28711 26.5869 7.32617C26.5674 7.43359 26.543 7.51172 26.5137 7.56055C26.3965 7.86328 26.2402 8.21973 26.0449 8.62988C25.9473 8.8252 25.8594 9.00586 25.7812 9.17188C25.7129 9.33789 25.6543 9.48438 25.6055 9.61133C25.5957 9.78711 25.5273 9.94336 25.4004 10.0801C25.3516 10.2949 25.3027 10.4512 25.2539 10.5488C25.1953 10.6758 25.1367 10.8223 25.0781 10.9883C25.0488 11.0566 25.0244 11.1494 25.0049 11.2666C24.9854 11.3838 24.9609 11.4766 24.9316 11.5449C24.873 11.6816 24.8242 11.7842 24.7852 11.8525C24.7461 11.9209 24.6973 12.0234 24.6387 12.1602C24.5996 12.3164 24.5605 12.4678 24.5215 12.6143C24.4824 12.7607 24.4238 12.9023 24.3457 13.0391C24.2676 13.2539 24.1895 13.459 24.1113 13.6543C24.0332 13.8496 23.9355 14.0254 23.8184 14.1816C23.4277 14.8164 23.1055 15.5146 22.8516 16.2764C22.6074 17.0186 22.3145 17.7363 21.9727 18.4297C21.9629 18.5371 21.9238 18.6543 21.8555 18.7812C21.8262 18.8398 21.7969 18.8984 21.7676 18.957C21.748 19.0156 21.7285 19.0742 21.709 19.1328C21.6113 19.25 21.5381 19.4062 21.4893 19.6016C21.4502 19.7578 21.3965 19.9434 21.3281 20.1582C21.2695 20.3535 21.2793 20.5146 21.3574 20.6416C21.4355 20.7686 21.5039 20.8516 21.5625 20.8906C21.6602 20.9492 21.8018 20.9688 21.9873 20.9492C22.1729 20.9297 22.3145 20.9004 22.4121 20.8613C22.4707 20.8418 22.5342 20.8223 22.6025 20.8027C22.6709 20.7832 22.7441 20.7637 22.8223 20.7441C22.9004 20.7246 22.9736 20.7051 23.042 20.6855C23.1104 20.666 23.1738 20.6465 23.2324 20.627C23.3984 20.5684 23.5303 20.5098 23.6279 20.4512C23.6768 20.4219 23.7305 20.3926 23.7891 20.3633C23.8477 20.334 23.9062 20.3047 23.9648 20.2754C24.0723 20.1973 24.1992 20.1387 24.3457 20.0996C24.4141 20.0312 24.4727 19.9922 24.5215 19.9824C24.5703 19.9727 24.6191 19.9434 24.668 19.8945C24.8828 19.7188 25.1025 19.5039 25.3271 19.25C25.5322 19.0156 25.7617 18.8008 26.0156 18.6055C26.3574 18.0781 26.8066 17.6191 27.3633 17.2285C27.5781 17.3457 27.7197 17.4531 27.7881 17.5508C27.8564 17.6484 27.9199 17.7461 27.9785 17.8438C27.998 18.0391 27.9688 18.1904 27.8906 18.2979C27.8125 18.4053 27.7441 18.5273 27.6855 18.6641C27.5293 18.8203 27.373 18.9814 27.2168 19.1475C27.0703 19.3135 26.9238 19.4795 26.7773 19.6455C26.4844 19.9873 26.1816 20.3047 25.8691 20.5977C25.8203 20.7051 25.7715 20.8174 25.7227 20.9346C25.6738 21.042 25.625 21.1494 25.5762 21.2568C25.4688 21.4814 25.3223 21.6523 25.1367 21.7695C24.9707 21.8867 24.8145 21.999 24.668 22.1064C24.5312 22.2139 24.4043 22.3164 24.2871 22.4141C24.0527 22.6094 23.7988 22.7559 23.5254 22.8535C23.0176 23.1562 22.5098 23.5078 22.002 23.9082C21.7969 24.0449 21.5527 24.1719 21.2695 24.2891C21.1133 24.2012 21.0352 24.1572 21.0352 24.1572L20.9766 24.1133C20.6641 24.0645 20.4346 23.9424 20.2881 23.7471C20.1514 23.5518 19.9805 23.3613 19.7754 23.1758C19.5117 22.9121 19.3164 22.5508 19.1895 22.0918C19.1113 21.8379 19.0381 21.5938 18.9697 21.3594C18.9014 21.125 18.8867 20.8418 18.9258 20.5098C18.9453 20.2949 18.9941 20.0898 19.0723 19.8945C19.1504 19.6992 19.2285 19.5137 19.3066 19.3379C19.4727 18.9668 19.6436 18.5908 19.8193 18.21C20.0049 17.8193 20.1953 17.4238 20.3906 17.0234C20.8008 16.1934 21.123 15.4219 21.3574 14.709C21.416 14.6113 21.4502 14.5283 21.46 14.46L21.5039 14.2695C21.582 14.0742 21.6748 13.874 21.7822 13.6689C21.8896 13.4639 21.9922 13.2734 22.0898 13.0977C22.1484 12.834 22.2314 12.585 22.3389 12.3506C22.3877 12.2432 22.4365 12.1309 22.4854 12.0137C22.5439 11.8867 22.5977 11.7598 22.6465 11.6328C22.7637 11.457 22.8516 11.252 22.9102 11.0176C22.9688 10.793 23.0664 10.5879 23.2031 10.4023L23.5547 9.28906C23.6816 8.87891 23.7695 8.48828 23.8184 8.11719C23.8379 7.95117 23.8379 7.80469 23.8184 7.67773C23.7988 7.54102 23.7988 7.38477 23.8184 7.20898C23.8281 6.98438 23.8574 6.73047 23.9062 6.44727C23.9453 6.17383 23.9453 5.89062 23.9062 5.59766C23.8574 5.63672 23.8086 5.67578 23.7598 5.71484C23.7109 5.74414 23.6621 5.77344 23.6133 5.80273C23.5645 5.83203 23.5156 5.86621 23.4668 5.90527C23.418 5.93457 23.3691 5.96875 23.3203 6.00781C23.2129 6.10547 23.0908 6.19824 22.9541 6.28613C22.8369 6.36426 22.7246 6.45703 22.6172 6.56445C22.5586 6.62305 22.5098 6.66699 22.4707 6.69629C22.4414 6.72559 22.4219 6.74512 22.4121 6.75488C22.4023 6.76465 22.3877 6.77441 22.3682 6.78418C22.3584 6.79395 22.3438 6.80859 22.3242 6.82812C22.2168 7.01367 22.1289 7.12598 22.0605 7.16504C21.9922 7.2041 21.9238 7.26758 21.8555 7.35547C21.6797 7.62891 21.5479 7.80957 21.46 7.89746C21.4111 7.94629 21.3574 8 21.2988 8.05859C21.25 8.11719 21.2012 8.17578 21.1523 8.23438C21.1523 8.26367 21.1279 8.35156 21.0791 8.49805C21.0303 8.64453 21.0059 8.73242 21.0059 8.76172C20.7031 9.2793 20.4102 9.67969 20.127 9.96289C20.0195 10.1289 19.9072 10.29 19.79 10.4463C19.6826 10.6025 19.5752 10.7539 19.4678 10.9004C19.3604 11.0469 19.2529 11.1982 19.1455 11.3545C19.0381 11.5107 18.9355 11.6719 18.8379 11.8379C18.6426 12.1602 18.4521 12.4043 18.2666 12.5703C18.1006 12.7168 17.9297 12.9219 17.7539 13.1855C17.5781 13.3613 17.4023 13.5762 17.2266 13.8301C17.1484 13.9473 17.0605 14.0596 16.9629 14.167C16.875 14.2744 16.7773 14.377 16.6699 14.4746C16.5137 14.6895 16.3623 14.8994 16.2158 15.1045C16.0693 15.3096 15.9277 15.5293 15.791 15.7637C15.752 15.8418 15.6641 16.0078 15.5273 16.2617C15.3906 16.5156 15.3027 16.6816 15.2637 16.7598C15.1758 16.916 15.0977 17.1016 15.0293 17.3164C14.9707 17.5215 14.8926 17.6973 14.7949 17.8438C14.7168 17.9805 14.6338 18.1172 14.5459 18.2539C14.4678 18.3809 14.3848 18.5078 14.2969 18.6348C14.209 18.7617 14.1211 18.8936 14.0332 19.0303C13.9551 19.1572 13.877 19.2891 13.7988 19.4258C13.7109 19.6309 13.6572 19.7969 13.6377 19.9238C13.6084 20.0801 13.5449 20.1875 13.4473 20.2461C13.3301 20.5098 13.2178 20.7197 13.1104 20.876C13.0029 21.0322 12.8906 21.252 12.7734 21.5352C12.7148 21.6719 12.6221 21.7695 12.4951 21.8281C12.3682 21.8867 12.2461 21.8867 12.1289 21.8281C11.9824 21.7695 11.8555 21.6523 11.748 21.4766C11.6992 21.3887 11.6504 21.3105 11.6016 21.2422C11.5527 21.1641 11.5039 21.0957 11.4551 21.0371C11.4062 20.8613 11.3525 20.7246 11.2939 20.627C11.2256 20.5195 11.1914 20.3828 11.1914 20.2168C11.1719 20.1289 11.1768 20.041 11.2061 19.9531C11.2354 19.8652 11.2402 19.7773 11.2207 19.6895C11.1621 19.4551 11.1621 19.2646 11.2207 19.1182L11.3672 18.7227C11.4355 18.5176 11.5039 18.3906 11.5723 18.3418C11.5918 18.2734 11.6113 18.21 11.6309 18.1514C11.6504 18.083 11.665 18.0195 11.6748 17.9609C11.6943 17.9023 11.709 17.8438 11.7188 17.7852C11.7383 17.7168 11.7578 17.6484 11.7773 17.5801C11.7969 17.5312 11.8164 17.4824 11.8359 17.4336C11.8555 17.3848 11.875 17.3408 11.8945 17.3018C11.9141 17.2529 11.9336 17.209 11.9531 17.1699C11.9727 17.1211 11.9922 17.0723 12.0117 17.0234L12.1143 16.7598C12.1338 16.7207 12.1484 16.6816 12.1582 16.6426C12.1777 16.5938 12.1973 16.5449 12.2168 16.4961C12.2363 16.3984 12.2461 16.3398 12.2461 16.3203C12.2461 16.2715 12.2656 16.2129 12.3047 16.1445C12.3242 16.0566 12.3438 15.9688 12.3633 15.8809C12.3926 15.793 12.4268 15.71 12.4658 15.6318C12.5049 15.5537 12.5391 15.4707 12.5684 15.3828C12.6074 15.2852 12.6465 15.1875 12.6855 15.0898C12.7344 14.9531 12.8125 14.748 12.9199 14.4746C13.0371 14.2012 13.1494 13.9375 13.2568 13.6836C13.3643 13.4297 13.4375 13.2734 13.4766 13.2148C13.5156 13.1172 13.5645 13 13.623 12.8633C13.6816 12.7266 13.7402 12.5996 13.7988 12.4824C13.9062 12.2871 13.9697 12.1553 13.9893 12.0869C13.999 12.0576 14.0039 12.0137 14.0039 11.9551C13.9258 11.8184 13.9307 11.6377 14.0186 11.4131C14.1064 11.1885 14.1992 10.959 14.2969 10.7246C14.3457 10.6074 14.3848 10.4902 14.4141 10.373C14.4531 10.2461 14.4824 10.1191 14.502 9.99219C14.5508 9.72852 14.6094 9.48438 14.6777 9.25977C14.7266 9.09375 14.7803 8.91797 14.8389 8.73242C14.9072 8.53711 14.9756 8.33203 15.0439 8.11719C15.1807 7.7168 15.2734 7.29688 15.3223 6.85742C15.3223 6.7793 15.3223 6.70605 15.3223 6.6377C15.332 6.55957 15.3418 6.48633 15.3516 6.41797C15.3711 6.28125 15.3125 6.20312 15.1758 6.18359C15.1367 6.08594 15.0977 5.98828 15.0586 5.89062C15.0195 5.79297 14.9609 5.71484 14.8828 5.65625C14.6777 5.65625 14.5264 5.71973 14.4287 5.84668C14.3799 5.91504 14.3262 5.97852 14.2676 6.03711C14.209 6.0957 14.1504 6.1543 14.0918 6.21289C13.9844 6.35938 13.8721 6.50098 13.7549 6.6377C13.6475 6.76465 13.5303 6.88672 13.4033 7.00391C13.2764 7.12109 13.1543 7.24805 13.0371 7.38477C12.9297 7.52148 12.8223 7.66797 12.7148 7.82422C12.5 8.03906 12.2656 8.30273 12.0117 8.61523C11.7578 8.92773 11.5527 9.19141 11.3965 9.40625C11.3477 9.55273 11.2695 9.66016 11.1621 9.72852C11.0352 9.80664 10.9375 9.89453 10.8691 9.99219C10.8203 10.0508 10.7666 10.1143 10.708 10.1826C10.6494 10.251 10.5859 10.3242 10.5176 10.4023C10.4492 10.4805 10.3857 10.5586 10.3271 10.6367C10.2686 10.7148 10.2148 10.793 10.166 10.8711C10.0879 10.9688 10.0049 11.0664 9.91699 11.1641C9.8291 11.2617 9.73633 11.3594 9.63867 11.457C9.59961 11.5059 9.54102 11.5889 9.46289 11.7061C9.43359 11.7451 9.39941 11.7891 9.36035 11.8379C9.33105 11.8867 9.29688 11.9355 9.25781 11.9844C9.07227 12.1699 8.95508 12.3066 8.90625 12.3945C8.84766 12.502 8.76953 12.5898 8.67188 12.6582C8.53516 12.9219 8.39355 13.1758 8.24707 13.4199L7.79297 14.2109C7.71484 14.2598 7.65625 14.3281 7.61719 14.416C7.56836 14.5332 7.51953 14.6211 7.4707 14.6797C7.42188 14.9141 7.3584 15.0898 7.28027 15.207C7.19238 15.334 7.11914 15.4805 7.06055 15.6465C6.76758 16.0957 6.52344 16.501 6.32812 16.8623C6.13281 17.2236 5.9375 17.5996 5.74219 17.9902C5.64453 18.1758 5.58594 18.293 5.56641 18.3418C5.55664 18.3711 5.52734 18.4102 5.47852 18.459C5.44922 18.5273 5.41992 18.5957 5.39062 18.6641C5.36133 18.7227 5.32715 18.7812 5.28809 18.8398C5.24902 18.8984 5.21484 18.957 5.18555 19.0156C5.15625 19.0742 5.12695 19.1328 5.09766 19.1914C5.06836 19.2305 5.04395 19.2891 5.02441 19.3672C5.01465 19.4258 4.98047 19.4746 4.92188 19.5137C4.69727 20.1582 4.43848 20.7393 4.14551 21.2568C3.84277 21.7939 3.57422 22.375 3.33984 23C3.29102 23.0488 3.26172 23.1025 3.25195 23.1611C3.24219 23.2295 3.21289 23.293 3.16406 23.3516C2.94922 23.5664 2.80762 23.6543 2.73926 23.6152C2.6709 23.5762 2.58789 23.5566 2.49023 23.5566C2.41211 23.5566 2.34863 23.5859 2.2998 23.6445C2.26074 23.7031 2.16797 23.7324 2.02148 23.7324C1.8457 23.7324 1.73828 23.752 1.69922 23.791C1.66016 23.8301 1.58203 23.8789 1.46484 23.9375C1.30859 24.0352 1.20605 24.0938 1.15723 24.1133C1.1084 24.1328 1.06445 24.123 1.02539 24.084C1.01562 24.1426 0.976563 24.1719 0.908203 24.1719C0.859375 24.1719 0.810547 24.2109 0.761719 24.2891C0.722656 24.2402 0.673828 24.2207 0.615234 24.2305C0.556641 24.25 0.498047 24.2305 0.439453 24.1719ZM41.0449 14.5332C41.1426 14.543 41.2061 14.582 41.2354 14.6504C41.2646 14.709 41.3184 14.7383 41.3965 14.7383C41.4355 14.9238 41.3965 15.0557 41.2793 15.1338C41.1621 15.2021 41.123 15.3145 41.1621 15.4707C40.9863 15.5879 40.7715 15.6611 40.5176 15.6904C40.2539 15.7197 40.0586 15.8223 39.9316 15.998C39.5898 16.1641 39.2334 16.2666 38.8623 16.3057C38.6768 16.3252 38.4814 16.3545 38.2764 16.3936C38.0811 16.4229 37.8809 16.457 37.6758 16.4961C37.4609 16.6426 37.3291 16.7207 37.2803 16.7305C37.2119 16.7402 37.1387 16.7695 37.0605 16.8184C36.8555 16.7402 36.6504 16.7012 36.4453 16.7012C36.2402 16.7012 36.0254 16.6719 35.8008 16.6133C35.6934 16.6523 35.5811 16.6719 35.4639 16.6719C35.3467 16.6719 35.2344 16.6914 35.127 16.7305C35.0488 16.9062 35.0098 17.082 35.0098 17.2578C35.0098 17.4434 34.9805 17.6191 34.9219 17.7852L34.7461 18.1367L34.7021 18.415C34.6826 18.5322 34.6582 18.625 34.6289 18.6934C34.5898 18.752 34.5459 18.8203 34.4971 18.8984C34.4482 18.9766 34.4238 19.0645 34.4238 19.1621C34.2871 19.3379 34.1895 19.5186 34.1309 19.7041C34.0723 19.9189 33.9648 20.0898 33.8086 20.2168C33.75 20.4219 33.6572 20.5781 33.5303 20.6855C33.4033 20.8027 33.2812 20.9395 33.1641 21.0957C32.9492 21.3887 32.7588 21.6426 32.5928 21.8574C32.4268 22.0723 32.207 22.2578 31.9336 22.4141C31.8359 22.5703 31.7188 22.6777 31.582 22.7363C31.4844 22.834 31.4062 22.9316 31.3477 23.0293L30.7617 23.3809C30.5273 23.5273 30.3027 23.625 30.0879 23.6738C29.7559 23.752 29.4336 23.7422 29.1211 23.6445C28.8086 23.5469 28.5156 23.4102 28.2422 23.2344C28.0566 23.2539 27.915 23.2197 27.8174 23.1318C27.7197 23.0537 27.5879 22.9902 27.4219 22.9414C27.207 22.7461 26.9727 22.5703 26.7188 22.4141C26.4551 22.248 26.2695 22.0332 26.1621 21.7695L26.0303 21.125C25.9912 20.9297 25.9473 20.7344 25.8984 20.5391C25.8594 20.373 25.8545 20.1875 25.8838 19.9824C25.9131 19.8066 25.918 19.6113 25.8984 19.3965C25.8984 19.2891 25.8984 19.1914 25.8984 19.1035C25.8984 19.0059 25.8936 18.9229 25.8838 18.8545C25.874 18.708 25.918 18.5273 26.0156 18.3125C26.0742 18.1855 26.123 18.0684 26.1621 17.9609C26.2012 17.8535 26.2305 17.7607 26.25 17.6826C26.2695 17.6045 26.2891 17.5312 26.3086 17.4629C26.3281 17.3848 26.3477 17.3164 26.3672 17.2578C26.3965 17.209 26.4258 17.1602 26.4551 17.1113C26.4844 17.0527 26.5137 16.9941 26.543 16.9355C26.5723 16.877 26.6016 16.8232 26.6309 16.7744C26.6699 16.7158 26.709 16.6621 26.748 16.6133C26.8652 16.4375 27.002 16.2617 27.1582 16.0859C27.3145 15.9102 27.4707 15.7441 27.627 15.5879C27.7344 15.4414 27.8418 15.3145 27.9492 15.207C28.125 15.0312 28.291 14.8848 28.4473 14.7676C28.6035 14.6504 28.7793 14.4941 28.9746 14.2988C29.0137 14.2402 29.0625 14.1914 29.1211 14.1523L29.2969 14.0352C29.4922 13.918 29.6729 13.8203 29.8389 13.7422C30.0049 13.6641 30.1953 13.5762 30.4102 13.4785C30.5957 13.3906 30.7471 13.3369 30.8643 13.3174C30.9424 13.2979 31.0205 13.2832 31.0986 13.2734C31.1865 13.2539 31.2793 13.2344 31.377 13.2148H31.7285C31.8359 13.2148 31.9336 13.1953 32.0215 13.1562C31.9629 13 32.0312 12.8926 32.2266 12.834C32.4219 12.7754 32.5684 12.7559 32.666 12.7754C32.8613 12.7754 33.0176 12.8193 33.1348 12.9072C33.252 12.9951 33.3594 13.0977 33.457 13.2148C33.6523 13.3516 33.8672 13.5566 34.1016 13.8301C34.1504 13.8789 34.1992 13.9082 34.248 13.918C34.2969 13.9277 34.3457 13.957 34.3945 14.0059C34.4727 14.123 34.5264 14.2305 34.5557 14.3281C34.585 14.4453 34.6484 14.5527 34.7461 14.6504C34.8047 14.6895 34.8633 14.7383 34.9219 14.7969C34.9805 14.8555 35.0195 14.9336 35.0391 15.0312C35.2441 15.1094 35.4297 15.168 35.5957 15.207C35.6836 15.2461 35.7861 15.2559 35.9033 15.2363C36.0107 15.2168 36.1328 15.2168 36.2695 15.2363C36.3574 15.2461 36.4453 15.2705 36.5332 15.3096C36.6113 15.3389 36.6992 15.3535 36.7969 15.3535C36.9434 15.3438 37.1045 15.3047 37.2803 15.2363C37.4463 15.1777 37.6367 15.168 37.8516 15.207C38.1445 15.2754 38.4521 15.2461 38.7744 15.1191C39.0967 14.9824 39.4238 14.8945 39.7559 14.8555C39.8535 14.8555 39.9219 14.8506 39.9609 14.8408C40 14.8311 40.0684 14.8262 40.166 14.8262C40.2637 14.748 40.3906 14.6895 40.5469 14.6504C40.7031 14.6113 40.8691 14.5723 41.0449 14.5332ZM32.666 15.4121C32.4707 15.2363 32.3584 15.124 32.3291 15.0752C32.29 15.0166 32.2559 14.9824 32.2266 14.9727C32.1387 14.8848 32.041 14.8359 31.9336 14.8262C31.875 14.8164 31.8164 14.8066 31.7578 14.7969C31.709 14.7871 31.6602 14.7773 31.6113 14.7676C31.2988 14.709 31.04 14.7432 30.835 14.8701C30.7373 14.9385 30.6348 15.002 30.5273 15.0605C30.4297 15.1191 30.332 15.1777 30.2344 15.2363C29.9219 15.4316 29.6484 15.6758 29.4141 15.9688C29.3555 16.0664 29.292 16.1738 29.2236 16.291C29.1553 16.4082 29.1016 16.5352 29.0625 16.6719C28.9844 16.8281 28.916 16.9697 28.8574 17.0967C28.7988 17.2236 28.75 17.375 28.7109 17.5508C28.6133 17.7363 28.5547 17.8975 28.5352 18.0342C28.5254 18.1025 28.5156 18.166 28.5059 18.2246C28.4961 18.2734 28.4863 18.3223 28.4766 18.3711C28.4668 18.4688 28.4521 18.5713 28.4326 18.6787C28.4131 18.7764 28.3936 18.8789 28.374 18.9863C28.3252 19.2305 28.3008 19.416 28.3008 19.543C28.3203 19.6016 28.3496 19.6797 28.3887 19.7773C28.4277 19.875 28.4668 19.9434 28.5059 19.9824C28.5449 20.0801 28.5889 20.1875 28.6377 20.3047C28.6865 20.4219 28.7305 20.5098 28.7695 20.5684C28.877 20.7051 29.0039 20.793 29.1504 20.832C29.2285 20.8516 29.3115 20.876 29.3994 20.9053C29.4873 20.9248 29.5801 20.9492 29.6777 20.9785C29.8926 21.0957 30.0391 21.1445 30.1172 21.125C30.2148 21.1055 30.2734 21.0957 30.293 21.0957C30.5566 21.0469 30.7812 20.9395 30.9668 20.7734C31.1328 20.6172 31.3281 20.4805 31.5527 20.3633C31.6309 20.2461 31.709 20.124 31.7871 19.9971C31.875 19.8701 31.9678 19.7432 32.0654 19.6162C32.1631 19.4795 32.251 19.3477 32.3291 19.2207C32.417 19.084 32.5 18.9473 32.5781 18.8105C32.627 18.752 32.6758 18.6641 32.7246 18.5469C32.7441 18.498 32.7637 18.4541 32.7832 18.415C32.8027 18.3662 32.8223 18.3223 32.8418 18.2832C32.9785 18.1172 33.042 18.0293 33.0322 18.0195C33.0225 18.0098 33.0273 17.9805 33.0469 17.9316C33.1738 17.6387 33.2324 17.4141 33.2227 17.2578C33.2129 17.1016 33.2129 16.9453 33.2227 16.7891C33.1738 16.6816 33.1299 16.5693 33.0908 16.4521C33.0518 16.335 33.0127 16.2129 32.9736 16.0859C32.8955 15.8223 32.793 15.5977 32.666 15.4121ZM41.8359 12.8633C41.9922 12.8242 42.0801 12.8193 42.0996 12.8486C42.1191 12.8779 42.1582 12.8926 42.2168 12.8926C42.2949 13 42.3047 13.1562 42.2461 13.3613C42.1777 13.6738 42.041 13.9717 41.8359 14.2549C41.6309 14.5381 41.4746 14.8164 41.3672 15.0898C41.2988 15.2266 41.2354 15.3486 41.1768 15.4561C41.1279 15.5537 41.084 15.6416 41.0449 15.7197C41.0059 15.7881 40.9668 15.8613 40.9277 15.9395C40.8984 16.0176 40.8691 16.0957 40.8398 16.1738C40.7422 16.3887 40.6445 16.6279 40.5469 16.8916C40.4492 17.1553 40.3516 17.4238 40.2539 17.6973L40.0781 18.0781C39.9805 18.293 39.9023 18.4834 39.8438 18.6494C39.7852 18.8154 39.7461 19.0254 39.7266 19.2793V20.0703C39.7461 20.207 39.7607 20.3486 39.7705 20.4951C39.7803 20.6416 39.79 20.793 39.7998 20.9492C39.8193 21.2715 39.8828 21.5352 39.9902 21.7402C40.2344 21.623 40.498 21.4229 40.7812 21.1396C40.918 21.0029 41.0449 20.8809 41.1621 20.7734C41.2891 20.6562 41.4062 20.5586 41.5137 20.4805C41.6504 20.2852 41.8018 20.1045 41.9678 19.9385C42.1436 19.7627 42.2852 19.5723 42.3926 19.3672C42.627 19.1719 42.7832 18.918 42.8613 18.6055C42.959 18.498 43.0518 18.376 43.1396 18.2393C43.1885 18.1709 43.2324 18.1074 43.2715 18.0488C43.3203 17.9805 43.3691 17.9121 43.418 17.8438C43.5645 17.6387 43.6914 17.3945 43.7988 17.1113C43.8574 16.9453 43.8818 16.7891 43.8721 16.6426C43.8623 16.5645 43.8574 16.4863 43.8574 16.4082C43.8574 16.3301 43.8574 16.252 43.8574 16.1738C43.8672 16.0078 43.8965 15.8418 43.9453 15.6758C43.9844 15.5391 43.9941 15.3828 43.9746 15.207C44.0039 15.1582 44.0381 15.0752 44.0771 14.958C44.1162 14.8408 44.1504 14.748 44.1797 14.6797C44.2188 14.582 44.292 14.4746 44.3994 14.3574C44.5068 14.2402 44.6094 14.1328 44.707 14.0352C44.7754 13.9473 44.8389 13.8594 44.8975 13.7715C44.9658 13.6836 45.0293 13.5957 45.0879 13.5078C45.1953 13.3418 45.3418 13.2051 45.5273 13.0977L45.8789 12.9512C46.0254 12.8828 46.1426 12.8438 46.2305 12.834C46.377 12.8145 46.5723 12.7705 46.8164 12.7021C47.0703 12.624 47.2656 12.6094 47.4023 12.6582C47.4805 12.668 47.5537 12.7119 47.6221 12.79C47.6904 12.8486 47.7734 12.8438 47.8711 12.7754C48.0273 12.9414 48.1055 13.0879 48.1055 13.2148C48.1055 13.332 48.0664 13.459 47.9883 13.5957C47.8613 13.7812 47.793 13.8936 47.7832 13.9326C47.7734 13.9521 47.7637 13.9766 47.7539 14.0059C47.7441 14.0254 47.7344 14.0449 47.7246 14.0645C47.5488 14.3574 47.373 14.6797 47.1973 15.0312C47.0215 15.3828 46.875 15.7148 46.7578 16.0273C46.9531 16.125 47.2119 16.1689 47.5342 16.1592C47.8564 16.1494 48.1445 16.1152 48.3984 16.0566C48.4375 16.0469 48.4717 16.0371 48.501 16.0273C48.54 16.0176 48.5791 16.0078 48.6182 15.998C48.6572 15.9883 48.6914 15.9785 48.7207 15.9688C48.7598 15.959 48.7988 15.9492 48.8379 15.9395C48.9648 15.9004 49.1553 15.8662 49.4092 15.8369C49.6143 15.8076 49.8047 15.7539 49.9805 15.6758C50.2051 15.5586 50.3418 15.5 50.3906 15.5C50.459 15.5 50.5273 15.4805 50.5957 15.4414C50.7812 15.3926 50.9521 15.3438 51.1084 15.2949C51.2646 15.2461 51.4062 15.1973 51.5332 15.1484C51.6016 15.1289 51.6699 15.1094 51.7383 15.0898C51.8066 15.0605 51.875 15.0264 51.9434 14.9873C52.0801 14.9092 52.207 14.8945 52.3242 14.9434C52.3633 14.9824 52.3779 15.0508 52.3682 15.1484C52.3584 15.2363 52.3828 15.334 52.4414 15.4414C52.2852 15.5684 52.168 15.627 52.0898 15.6172C51.9336 15.6953 51.7725 15.7686 51.6064 15.8369C51.4404 15.9053 51.2646 15.9736 51.0791 16.042L50.0391 16.4082C49.8047 16.5156 49.6484 16.5596 49.5703 16.54C49.502 16.5205 49.4141 16.5352 49.3066 16.584C48.9844 16.7305 48.7061 16.8379 48.4717 16.9062C48.2764 16.9648 48.1055 17.0332 47.959 17.1113C47.8809 17.1699 47.8271 17.2139 47.7979 17.2432C47.749 17.292 47.6855 17.3262 47.6074 17.3457C47.2754 17.4043 46.9922 17.4287 46.7578 17.4189C46.5137 17.4092 46.2598 17.4727 45.9961 17.6094C45.9375 17.7266 45.8594 17.8584 45.7617 18.0049C45.6641 18.1514 45.5566 18.2734 45.4395 18.3711C45.3418 18.5664 45.2393 18.7324 45.1318 18.8691C45.0244 19.0059 44.9023 19.1523 44.7656 19.3086C44.5898 19.4648 44.4141 19.6309 44.2383 19.8066C44.0625 19.9824 43.8965 20.1484 43.7402 20.3047C43.4668 20.7539 43.1494 21.1689 42.7881 21.5498C42.4268 21.9307 42.0508 22.3066 41.6602 22.6777C41.5625 22.6875 41.4697 22.7314 41.3818 22.8096C41.3135 22.8682 41.2207 22.9219 41.1035 22.9707C40.9766 23.0098 40.874 23.0391 40.7959 23.0586C40.7275 23.0879 40.6836 23.1074 40.6641 23.1172C40.625 23.127 40.5664 23.1562 40.4883 23.2051C40.3516 23.2637 40.249 23.3174 40.1807 23.3662C40.1221 23.4053 40.0781 23.4395 40.0488 23.4688C40 23.5078 39.9414 23.5273 39.873 23.5273C39.8242 23.5273 39.7754 23.5664 39.7266 23.6445C39.4824 23.5957 39.3359 23.625 39.2871 23.7324C39.209 23.7324 39.1309 23.7422 39.0527 23.7617C38.9941 23.7812 38.9258 23.7812 38.8477 23.7617C38.7891 23.7129 38.7451 23.6689 38.7158 23.6299C38.6768 23.5713 38.6426 23.5273 38.6133 23.498C38.3203 23.3809 38.1445 23.2539 38.0859 23.1172C38.0176 22.9707 37.9297 22.8633 37.8223 22.7949C37.7344 22.5898 37.6807 22.3555 37.6611 22.0918C37.6514 21.9746 37.6416 21.8574 37.6318 21.7402C37.6221 21.6133 37.6074 21.4863 37.5879 21.3594C37.5781 21.3203 37.5684 21.2861 37.5586 21.2568C37.5488 21.2178 37.5391 21.1787 37.5293 21.1396C37.5195 21.1006 37.5098 21.0664 37.5 21.0371C37.4902 20.998 37.4805 20.959 37.4707 20.9199C37.4316 20.7637 37.417 20.6074 37.4268 20.4512C37.4365 20.3047 37.4121 20.1484 37.3535 19.9824C37.4512 19.6699 37.4609 19.3672 37.3828 19.0742C37.4219 18.9375 37.4707 18.7568 37.5293 18.5322C37.5879 18.3076 37.627 18.1172 37.6465 17.9609C37.6953 17.5508 37.7686 17.209 37.8662 16.9355C37.9736 16.6621 38.1348 16.3203 38.3496 15.9102C38.4277 15.7344 38.5156 15.5586 38.6133 15.3828C38.6621 15.2949 38.7109 15.207 38.7598 15.1191C38.8086 15.0215 38.8574 14.9238 38.9062 14.8262C38.9551 14.7285 38.9941 14.6504 39.0234 14.5918C39.0625 14.5234 39.0869 14.4746 39.0967 14.4453C39.1357 14.377 39.1992 14.2695 39.2871 14.123L39.4336 13.8594C39.4922 13.7617 39.5605 13.6738 39.6387 13.5957C39.7949 13.4395 39.9414 13.3174 40.0781 13.2295C40.2148 13.1416 40.3809 13.0488 40.5762 12.9512C40.7617 12.9902 41.001 12.9561 41.2939 12.8486C41.5869 12.7412 41.7676 12.7461 41.8359 12.8633ZM47.666 20.4219C47.7148 20.4609 47.7734 20.4902 47.8418 20.5098C47.9102 20.5195 47.9688 20.5586 48.0176 20.627C48.1152 20.5879 48.2129 20.5879 48.3105 20.627L48.6035 20.7441C48.6621 20.8809 48.7695 21.0273 48.9258 21.1836C48.9844 21.3984 49.0186 21.6035 49.0283 21.7988C49.0381 21.9941 49.0039 22.1797 48.9258 22.3555C48.7793 22.4727 48.6719 22.624 48.6035 22.8096C48.5449 22.9658 48.4473 23.0977 48.3105 23.2051C48.2129 23.3027 48.1006 23.3809 47.9736 23.4395C47.8271 23.5078 47.6953 23.5859 47.5781 23.6738C47.3242 23.752 47.1143 23.7568 46.9482 23.6885C46.7822 23.6201 46.6309 23.5273 46.4941 23.4102C46.2598 23.1953 46.1426 22.8975 46.1426 22.5166C46.1328 22.126 46.2109 21.7451 46.377 21.374C46.5332 21.0029 46.7285 20.7441 46.9629 20.5977C47.0801 20.5586 47.1875 20.5244 47.2852 20.4951C47.3828 20.4658 47.5098 20.4414 47.666 20.4219ZM79.043 1.49609C79.082 1.67188 79.1797 1.80859 79.3359 1.90625L79.3799 2.38965C79.3896 2.46777 79.3994 2.55078 79.4092 2.63867C79.4189 2.7168 79.4336 2.79492 79.4531 2.87305V3.12207C79.4531 3.20996 79.4824 3.2832 79.541 3.3418C79.4824 4.04492 79.3896 4.60645 79.2627 5.02637C79.1943 5.24121 79.1309 5.4707 79.0723 5.71484C79.0234 5.95898 78.9746 6.21289 78.9258 6.47656C78.916 6.54492 78.8916 6.6377 78.8525 6.75488C78.8232 6.84277 78.8086 6.93555 78.8086 7.0332C78.7891 7.13086 78.7842 7.19922 78.7939 7.23828C78.8037 7.27734 78.7988 7.3457 78.7793 7.44336C78.7305 7.58008 78.6719 7.70703 78.6035 7.82422C78.5645 7.89258 78.5254 7.96582 78.4863 8.04395C78.4473 8.1123 78.4082 8.18555 78.3691 8.26367C78.0566 8.83008 77.71 9.36719 77.3291 9.875C76.9482 10.3828 76.4746 10.7734 75.9082 11.0469C75.6738 11.1543 75.4932 11.2471 75.3662 11.3252C75.2295 11.4033 75.0488 11.4668 74.8242 11.5156C74.6875 11.5938 74.5264 11.6768 74.3408 11.7646C74.1553 11.8525 73.9746 11.916 73.7988 11.9551C73.7305 11.9941 73.6523 12.0137 73.5645 12.0137C73.5059 12.0137 73.4277 12.0234 73.3301 12.043L73.0811 12.1455C73.042 12.1553 73.0078 12.1699 72.9785 12.1895C72.9492 12.1992 72.9199 12.209 72.8906 12.2188C72.7441 12.2578 72.627 12.2773 72.5391 12.2773C72.4023 12.2578 72.3047 12.1748 72.2461 12.0283C72.1875 11.8818 72.1582 11.7305 72.1582 11.5742C72.0703 11.4863 71.9824 11.418 71.8945 11.3691C71.8066 11.3203 71.7383 11.2129 71.6895 11.0469C71.6309 10.832 71.5918 10.7148 71.5723 10.6953C71.543 10.666 71.5234 10.6367 71.5137 10.6074C71.416 10.334 71.3818 10.0264 71.4111 9.68457C71.4404 9.34277 71.5137 9.06445 71.6309 8.84961C71.6797 8.74219 71.7383 8.66895 71.8066 8.62988C71.8945 8.58105 71.9434 8.50781 71.9531 8.41016C72.0996 8.32227 72.2363 8.21973 72.3633 8.10254C72.4902 7.98535 72.627 7.88281 72.7734 7.79492C72.9492 7.48242 73.1738 7.22852 73.4473 7.0332C73.6914 6.86719 73.9355 6.68164 74.1797 6.47656C74.2676 6.4082 74.3311 6.33984 74.3701 6.27148C74.4287 6.18359 74.502 6.10547 74.5898 6.03711C74.6582 5.96875 74.7266 5.91504 74.7949 5.87598C74.8926 5.81738 74.9609 5.77344 75 5.74414L75.2344 5.50977C75.3027 5.4707 75.3809 5.45117 75.4688 5.45117C75.5566 5.45117 75.6348 5.43164 75.7031 5.39258C75.9766 5.35352 76.1133 5.36816 76.1133 5.43652V5.65625C75.9375 5.76367 75.6836 5.86133 75.3516 5.94922C75.3027 6.11523 75.2197 6.23242 75.1025 6.30078C75.0049 6.35938 74.8926 6.4668 74.7656 6.62305C74.7266 6.67188 74.6875 6.7207 74.6484 6.76953C74.6191 6.80859 74.5947 6.85254 74.5752 6.90137C74.5361 6.97949 74.4434 7.04297 74.2969 7.0918C74.1895 7.3457 74.0674 7.5459 73.9307 7.69238C73.7744 7.8584 73.6328 8.0293 73.5059 8.20508C73.5059 8.41992 73.4619 8.60059 73.374 8.74707C73.2861 8.89355 73.1934 9.04492 73.0957 9.20117C73.0566 9.2793 73.0176 9.35742 72.9785 9.43555C72.9395 9.51367 72.9199 9.57227 72.9199 9.61133C72.9297 9.63086 72.9395 9.65527 72.9492 9.68457C72.9688 9.7041 72.9834 9.7334 72.9932 9.77246C73.0225 9.85059 73.0566 9.91406 73.0957 9.96289C73.125 10.002 73.1689 10.0508 73.2275 10.1094C73.2861 10.168 73.3203 10.2168 73.3301 10.2559C73.7988 9.96289 74.2627 9.66992 74.7217 9.37695C75.1807 9.08398 75.5762 8.73242 75.9082 8.32227C76.0059 8.14648 76.0986 7.97559 76.1865 7.80957C76.2744 7.64355 76.3672 7.46289 76.4648 7.26758C76.5039 7.07227 76.5625 6.88672 76.6406 6.71094C76.7188 6.53516 76.8066 6.35938 76.9043 6.18359C77.002 5.98828 77.0898 5.79297 77.168 5.59766C77.2461 5.40234 77.2949 5.19727 77.3145 4.98242C77.3242 4.9043 77.3291 4.82617 77.3291 4.74805C77.3389 4.66016 77.3389 4.56738 77.3291 4.46973C77.3193 4.29395 77.3438 4.15234 77.4023 4.04492C77.3633 3.9375 77.3633 3.80566 77.4023 3.64941C77.4414 3.5127 77.4512 3.35156 77.4316 3.16602C77.2949 2.87305 77.1582 2.70215 77.0215 2.65332C76.8848 2.60449 76.7383 2.56055 76.582 2.52148C76.4258 2.61914 76.2598 2.72656 76.084 2.84375C75.9082 2.96094 75.7422 3.08789 75.5859 3.22461C75.5273 3.2832 75.4688 3.3418 75.4102 3.40039C75.3516 3.45898 75.2881 3.51758 75.2197 3.57617C75.083 3.69336 74.9805 3.83008 74.9121 3.98633C74.6582 4.25977 74.4531 4.49902 74.2969 4.7041C74.1406 4.90918 73.9844 5.11914 73.8281 5.33398C73.5254 5.5293 73.2227 5.76367 72.9199 6.03711C72.6172 6.31055 72.3145 6.54492 72.0117 6.74023C71.7578 6.93555 71.5088 7.13574 71.2646 7.34082C71.0205 7.5459 70.791 7.75586 70.5762 7.9707C70.4785 8.07812 70.376 8.18066 70.2686 8.27832C70.1709 8.37598 70.0684 8.47363 69.9609 8.57129C69.7363 8.7666 69.541 8.9668 69.375 9.17188C69.0723 9.5918 68.7305 10.0312 68.3496 10.4902C68.2422 10.5977 68.1543 10.7051 68.0859 10.8125C68.0176 10.9297 67.9297 11.0469 67.8223 11.1641C67.7246 11.2617 67.6318 11.3691 67.5439 11.4863C67.5049 11.5449 67.4609 11.6035 67.4121 11.6621C67.373 11.7109 67.334 11.7598 67.2949 11.8086C67.2559 11.877 67.207 11.9795 67.1484 12.1162C67.0898 12.2529 67.041 12.3555 67.002 12.4238C66.8066 12.6582 66.6162 12.8975 66.4307 13.1416C66.2451 13.3857 66.084 13.6641 65.9473 13.9766C65.7227 14.2695 65.542 14.5771 65.4053 14.8994C65.3369 15.0557 65.2686 15.207 65.2002 15.3535C65.1318 15.5 65.0586 15.6465 64.9805 15.793C64.9414 16.0566 64.8682 16.3008 64.7607 16.5254C64.6533 16.75 64.5801 16.9941 64.541 17.2578C64.5312 17.3262 64.5166 17.3945 64.4971 17.4629C64.4775 17.5215 64.458 17.585 64.4385 17.6533C64.4189 17.7217 64.3994 17.79 64.3799 17.8584C64.3604 17.9268 64.3457 18 64.3359 18.0781C64.2969 18.1953 64.2773 18.3369 64.2773 18.5029C64.2773 18.6592 64.2578 18.791 64.2188 18.8984C64.1016 19.1426 64.043 19.3232 64.043 19.4404C64.043 19.5479 63.9941 19.6309 63.8965 19.6895C63.9551 19.8457 64.0088 19.9824 64.0576 20.0996C64.1064 20.2168 64.1797 20.334 64.2773 20.4512C64.3262 20.5293 64.3848 20.5977 64.4531 20.6562C64.5215 20.7148 64.5801 20.7832 64.6289 20.8613C64.707 21.0566 64.7705 21.1738 64.8193 21.2129C64.8682 21.252 64.9316 21.3008 65.0098 21.3594C65.0684 21.3984 65.1416 21.4473 65.2295 21.5059C65.3174 21.5645 65.4004 21.6035 65.4785 21.623C65.5859 21.6621 65.6885 21.6768 65.7861 21.667C65.8545 21.6572 65.957 21.6621 66.0938 21.6816C66.2207 21.6816 66.3086 21.6865 66.3574 21.6963C66.4062 21.7061 66.4941 21.7012 66.6211 21.6816C66.7773 21.6426 66.9629 21.5986 67.1777 21.5498C67.3926 21.501 67.5879 21.457 67.7637 21.418C68.0371 21.3398 68.3057 21.2617 68.5693 21.1836C68.833 21.1055 69.082 21.0176 69.3164 20.9199C69.5703 20.8125 69.7754 20.6758 69.9316 20.5098C70.0879 20.3438 70.2637 20.207 70.459 20.0996C70.7715 19.8652 70.9912 19.6748 71.1182 19.5283C71.2549 19.3818 71.3965 19.2598 71.543 19.1621C71.6797 18.9863 71.7578 18.8984 71.7773 18.8984C71.7969 18.8984 71.8164 18.8887 71.8359 18.8691C71.9043 18.791 71.9678 18.7178 72.0264 18.6494C72.0947 18.5811 72.1631 18.5127 72.2314 18.4443C72.2998 18.376 72.3633 18.3076 72.4219 18.2393C72.4902 18.1709 72.5586 18.0977 72.627 18.0195C72.8613 17.9121 73.0371 17.7852 73.1543 17.6387C73.3203 17.5801 73.4521 17.502 73.5498 17.4043C73.5986 17.3555 73.6523 17.3066 73.7109 17.2578C73.7695 17.209 73.8281 17.1602 73.8867 17.1113C74.0332 17.0039 74.1406 16.916 74.209 16.8477C74.2871 16.7695 74.3604 16.6914 74.4287 16.6133C74.4971 16.5352 74.5703 16.4473 74.6484 16.3496C74.6973 16.3008 74.7559 16.2568 74.8242 16.2178C74.9121 16.1592 74.9902 16.0859 75.0586 15.998C75.0879 15.959 75.127 15.8809 75.1758 15.7637C75.2148 15.666 75.2832 15.6172 75.3809 15.6172C75.498 15.5977 75.625 15.6514 75.7617 15.7783C75.8984 15.9053 75.9668 16.0371 75.9668 16.1738C75.7812 16.4668 75.6836 16.6328 75.6738 16.6719C75.5273 16.8867 75.3809 17.0723 75.2344 17.2285C75.1562 17.3164 75.0781 17.4092 75 17.5068C74.9219 17.6045 74.8438 17.707 74.7656 17.8145C74.6094 17.9902 74.4531 18.1709 74.2969 18.3564C74.1406 18.542 73.9941 18.7422 73.8574 18.957C73.7402 19.1523 73.5889 19.3428 73.4033 19.5283C73.3252 19.6064 73.2422 19.6943 73.1543 19.792C73.0664 19.8799 72.9785 19.9727 72.8906 20.0703C72.666 20.3145 72.417 20.5684 72.1436 20.832C71.9092 21.0469 71.6797 21.3301 71.4551 21.6816C71.3281 21.8086 71.2305 21.9014 71.1621 21.96C71.0938 22.0186 70.9961 22.1113 70.8691 22.2383C70.7617 22.2969 70.6689 22.3604 70.5908 22.4287C70.5127 22.4971 70.4199 22.5605 70.3125 22.6191C70.1172 22.6875 69.917 22.7705 69.7119 22.8682C69.5166 22.9561 69.3213 23.0537 69.126 23.1611C68.7061 23.3955 68.2617 23.5762 67.793 23.7031C67.6855 23.7324 67.5732 23.7617 67.4561 23.791C67.3486 23.8301 67.2412 23.8691 67.1338 23.9082C66.9189 23.9766 66.6699 24.0059 66.3867 23.9961C66.3281 23.9766 66.2793 23.9668 66.2402 23.9668C66.2012 23.9668 66.1426 23.957 66.0645 23.9375C65.9668 23.9277 65.8447 23.8887 65.6982 23.8203C65.5518 23.752 65.4102 23.7129 65.2734 23.7031C65.1758 23.7031 65.0879 23.7178 65.0098 23.7471C64.9414 23.7764 64.8535 23.791 64.7461 23.791C64.3164 23.5176 63.9697 23.2881 63.7061 23.1025C63.4424 22.917 63.2031 22.6973 62.9883 22.4434C62.8027 22.1602 62.6953 21.999 62.666 21.96C62.6367 21.9209 62.6025 21.8818 62.5635 21.8428C62.5342 21.8037 62.5 21.7598 62.4609 21.7109C62.3047 21.4863 62.1484 21.2227 61.9922 20.9199C61.9922 20.8516 61.9678 20.7832 61.9189 20.7148C61.8896 20.6758 61.8457 20.6074 61.7871 20.5098C61.6895 20.1875 61.6406 19.8408 61.6406 19.4697C61.6406 19.2842 61.6406 19.1035 61.6406 18.9277C61.6504 18.752 61.6602 18.5762 61.6699 18.4004C61.6797 18.3027 61.6797 18.21 61.6699 18.1221C61.6504 18.0049 61.6406 17.9121 61.6406 17.8438C61.6406 17.6875 61.6699 17.5215 61.7285 17.3457C61.7578 17.2578 61.7822 17.1748 61.8018 17.0967C61.8311 17.0088 61.8555 16.9258 61.875 16.8477C61.9922 16.418 62.124 16.0127 62.2705 15.6318C62.417 15.251 62.5879 14.8945 62.7832 14.5625C62.959 14.3184 63.0908 14.0938 63.1787 13.8887C63.2275 13.7812 63.2715 13.6738 63.3105 13.5664C63.3594 13.4492 63.4082 13.332 63.457 13.2148C63.5547 13 63.6523 12.79 63.75 12.585C63.8477 12.3799 63.9551 12.1699 64.0723 11.9551C64.1699 11.7598 64.2725 11.5645 64.3799 11.3691C64.4873 11.1738 64.6289 10.998 64.8047 10.8418C64.8633 10.627 64.9512 10.4463 65.0684 10.2998C65.127 10.2217 65.1855 10.1484 65.2441 10.0801C65.3027 10.002 65.3613 9.92383 65.4199 9.8457C65.5176 9.70898 65.6152 9.57715 65.7129 9.4502C65.8203 9.32324 65.9229 9.20117 66.0205 9.08398C66.2158 8.86914 66.3965 8.60547 66.5625 8.29297C66.7188 8.17578 66.8604 8.04883 66.9873 7.91211C67.1143 7.77539 67.2363 7.63867 67.3535 7.50195C67.4219 7.42383 67.4854 7.35059 67.5439 7.28223C67.6123 7.21387 67.6807 7.14551 67.749 7.07715C67.8174 7.00879 67.8809 6.94043 67.9395 6.87207C68.0078 6.80371 68.0762 6.73047 68.1445 6.65234C68.2227 6.59375 68.2959 6.53027 68.3643 6.46191C68.4326 6.39355 68.4961 6.33008 68.5547 6.27148C68.6914 6.11523 68.8281 5.97852 68.9648 5.86133C69.1016 5.74414 69.248 5.62695 69.4043 5.50977C69.541 5.45117 69.707 5.34375 69.9023 5.1875C69.9902 5.09961 70.0781 5.01172 70.166 4.92383C70.2539 4.83594 70.3369 4.74316 70.415 4.64551C70.4932 4.54785 70.5762 4.45996 70.6641 4.38184C70.752 4.29395 70.8398 4.21094 70.9277 4.13281C71.2012 3.85938 71.4844 3.59082 71.7773 3.32715C72.0703 3.06348 72.3828 2.82422 72.7148 2.60938C72.9102 2.39453 73.1445 2.21387 73.418 2.06738C73.6914 1.9209 73.9648 1.7793 74.2383 1.64258C74.3945 1.58398 74.5264 1.53027 74.6338 1.48145C74.7412 1.43262 74.8633 1.36914 75 1.29102C75.2246 1.1543 75.3809 1.08105 75.4688 1.07129C75.5664 1.06152 75.6445 1.01758 75.7031 0.939453C75.9473 0.939453 76.1523 0.905273 76.3184 0.836914C76.4844 0.768555 76.6797 0.763672 76.9043 0.822266C76.9727 0.832031 77.041 0.856445 77.1094 0.895508C77.1875 0.93457 77.2461 0.958984 77.2852 0.96875C77.6562 1.00781 77.9199 1.06641 78.0762 1.14453C78.2324 1.22266 78.3838 1.2959 78.5303 1.36426C78.6768 1.43262 78.8477 1.47656 79.043 1.49609ZM86.0449 14.8555L86.0156 15.0898C86.0352 15.1582 86.0156 15.2754 85.957 15.4414C85.8594 15.5586 85.8008 15.6855 85.7812 15.8223C85.7422 15.9004 85.708 15.9688 85.6787 16.0273C85.6494 16.0859 85.625 16.1641 85.6055 16.2617C85.5664 16.3789 85.5518 16.5156 85.5615 16.6719C85.5713 16.75 85.5713 16.8281 85.5615 16.9062C85.5615 16.9746 85.5566 17.043 85.5469 17.1113C85.5078 17.3262 85.4785 17.5361 85.459 17.7412C85.4395 17.9463 85.4199 18.1562 85.4004 18.3711C85.4004 18.5859 85.3809 18.8301 85.3418 19.1035C85.3027 19.377 85.2637 19.6211 85.2246 19.8359C85.3125 19.9922 85.3613 20.1387 85.3711 20.2754C85.3809 20.4219 85.4492 20.5488 85.5762 20.6562C85.9668 20.5977 86.2793 20.5049 86.5137 20.3779C86.748 20.251 86.9727 20.0703 87.1875 19.8359C87.3438 19.7676 87.4658 19.6992 87.5537 19.6309C87.6318 19.5625 87.7441 19.4844 87.8906 19.3965L88.125 19.1621C88.3594 19.0352 88.4912 18.957 88.5205 18.9277C88.54 18.9082 88.5645 18.8887 88.5938 18.8691C88.6328 18.8496 88.6719 18.8301 88.7109 18.8105C89.043 18.5957 89.2969 18.3711 89.4727 18.1367C89.6191 18.0195 89.7412 17.8975 89.8389 17.7705C89.917 17.6631 90.0684 17.5605 90.293 17.4629C90.4199 17.3066 90.5615 17.1748 90.7178 17.0674C90.874 16.96 91.0156 16.8281 91.1426 16.6719C91.25 16.6719 91.3281 16.6914 91.377 16.7305C91.4062 16.75 91.4355 16.7695 91.4648 16.7891C91.5039 16.8086 91.543 16.8281 91.582 16.8477C91.6406 17.0039 91.6504 17.165 91.6113 17.3311C91.5723 17.4971 91.5039 17.6484 91.4062 17.7852C91.3086 17.9121 91.2598 17.9902 91.2598 18.0195C91.2598 18.0391 91.25 18.0586 91.2305 18.0781C91.1719 18.1465 91.0986 18.2197 91.0107 18.2979C90.9229 18.3662 90.8496 18.4395 90.791 18.5176C90.6934 18.6934 90.6152 18.7812 90.5566 18.7812C90.498 18.7812 90.4492 18.8008 90.4102 18.8398C90.2344 18.9473 90.1123 19.0254 90.0439 19.0742C89.9658 19.1426 89.8535 19.2207 89.707 19.3086C89.502 19.416 89.375 19.4941 89.3262 19.543C89.2773 19.5918 89.2383 19.6211 89.209 19.6309C88.9746 19.8945 88.7451 20.1143 88.5205 20.29C88.3154 20.4463 88.0957 20.666 87.8613 20.9492C87.7832 21.0078 87.7051 21.0664 87.627 21.125C87.5488 21.1836 87.4805 21.2617 87.4219 21.3594C87.2461 21.4766 87.1045 21.5938 86.9971 21.7109C86.8896 21.8281 86.7676 21.9648 86.6309 22.1211C86.5137 22.1797 86.3867 22.2627 86.25 22.3701C86.084 22.4971 85.9375 22.5898 85.8105 22.6484C85.7617 22.6777 85.6787 22.7217 85.5615 22.7803C85.4639 22.8291 85.3711 22.8535 85.2832 22.8535C85.0586 22.8926 84.8438 22.873 84.6387 22.7949C84.4531 22.7266 84.2676 22.668 84.082 22.6191C84.0039 22.502 83.9062 22.4043 83.7891 22.3262C83.6133 22.1113 83.4863 21.8574 83.4082 21.5645C83.3301 21.2715 83.252 20.959 83.1738 20.627C82.998 20.7441 82.8516 20.8711 82.7344 21.0078C82.6172 21.1543 82.4414 21.2812 82.207 21.3887C82.0117 21.5742 81.8115 21.7598 81.6064 21.9453C81.4014 22.1211 81.1865 22.292 80.9619 22.458C80.7471 22.624 80.5273 22.7998 80.3027 22.9854C80.0781 23.1611 79.8535 23.3418 79.6289 23.5273C79.4727 23.6836 79.3652 23.7422 79.3066 23.7031C79.1309 23.918 78.8184 23.9863 78.3691 23.9082C78.2129 23.8301 78.0371 23.7617 77.8418 23.7031C77.7051 23.6641 77.5488 23.6055 77.373 23.5273C77.041 23.4688 76.7627 23.3223 76.5381 23.0879C76.3135 22.8535 76.123 22.5801 75.9668 22.2676C75.9082 22.1016 75.8643 21.9551 75.835 21.8281C75.8252 21.7598 75.8105 21.6865 75.791 21.6084C75.7715 21.5303 75.752 21.4473 75.7324 21.3594C75.7227 21.1934 75.6934 21.0615 75.6445 20.9639C75.6055 20.8564 75.6055 20.7539 75.6445 20.6562C75.6055 20.6074 75.5957 20.5439 75.6152 20.4658C75.6348 20.3682 75.6445 20.2949 75.6445 20.2461C75.625 19.9727 75.6494 19.6797 75.7178 19.3672C75.7861 19.0547 75.8789 18.7715 75.9961 18.5176C76.0547 18.4199 76.1328 18.3223 76.2305 18.2246C76.2793 18.166 76.3086 18.1074 76.3184 18.0488C76.3281 18 76.3574 17.9512 76.4062 17.9023C76.4551 17.8438 76.5137 17.7852 76.582 17.7266C76.6797 17.6484 76.748 17.5898 76.7871 17.5508C76.8359 17.4824 76.8848 17.4189 76.9336 17.3604C76.9922 17.292 77.0557 17.2334 77.124 17.1846C77.1924 17.1357 77.2559 17.082 77.3145 17.0234C77.373 16.9648 77.4316 16.9062 77.4902 16.8477C77.5586 16.7793 77.6123 16.7109 77.6514 16.6426C77.7002 16.5645 77.7734 16.5059 77.8711 16.4668C77.9492 16.3301 78.0371 16.2178 78.1348 16.1299C78.2324 16.042 78.3398 15.9492 78.457 15.8516C78.7891 15.4512 79.1992 15.1094 79.6875 14.8262C80.1855 14.543 80.625 14.2305 81.0059 13.8887C81.1426 13.8301 81.2598 13.7617 81.3574 13.6836C81.4551 13.6055 81.5527 13.5273 81.6504 13.4492C81.8945 13.2344 82.1582 13.166 82.4414 13.2441L83.2031 13.4492C83.3984 13.625 83.5889 13.8008 83.7744 13.9766C83.96 14.1523 84.1211 14.3477 84.2578 14.5625C84.3262 14.5527 84.3994 14.5479 84.4775 14.5479C84.5557 14.5381 84.6387 14.5381 84.7266 14.5479C84.9023 14.5674 85.0879 14.5527 85.2832 14.5039C85.3418 14.5039 85.4004 14.4893 85.459 14.46C85.5176 14.4307 85.5664 14.416 85.6055 14.416C85.8984 14.5137 86.0449 14.6602 86.0449 14.8555ZM82.1777 15.2949C81.6504 15.5488 81.1719 15.8467 80.7422 16.1885C80.3125 16.5303 79.9023 16.8965 79.5117 17.2871C79.4629 17.3359 79.4092 17.3848 79.3506 17.4336C79.3018 17.4727 79.2529 17.5166 79.2041 17.5654C79.1553 17.6045 79.1064 17.6484 79.0576 17.6973C79.0088 17.7461 78.9648 17.7949 78.9258 17.8438C78.8477 17.9414 78.7744 18.0586 78.7061 18.1953C78.6377 18.332 78.5742 18.459 78.5156 18.5762C78.4961 18.6152 78.4766 18.6543 78.457 18.6934C78.4375 18.7227 78.418 18.7471 78.3984 18.7666C78.3789 18.7861 78.3594 18.8105 78.3398 18.8398C78.3203 18.8691 78.3008 18.8984 78.2812 18.9277C78.2422 19.0254 78.2275 19.123 78.2373 19.2207C78.2471 19.2891 78.252 19.3965 78.252 19.543V19.8359C78.252 19.8945 78.2617 19.9922 78.2812 20.1289C78.3398 20.3438 78.3691 20.5586 78.3691 20.7734C78.3691 20.9297 78.3838 21.1201 78.4131 21.3447C78.4424 21.5693 78.5156 21.7207 78.6328 21.7988C78.7598 21.877 78.8818 21.8965 78.999 21.8574C79.1357 21.8086 79.248 21.7793 79.3359 21.7695C80.0195 21.2422 80.6641 20.6904 81.2695 20.1143C81.875 19.5381 82.4121 18.8887 82.8809 18.166C82.8418 17.6875 82.8369 17.1943 82.8662 16.6865C82.8955 16.208 82.8516 15.7637 82.7344 15.3535C82.6562 15.3047 82.5635 15.29 82.4561 15.3096C82.3779 15.3193 82.2852 15.3145 82.1777 15.2949ZM97.7637 20.6855C97.8418 20.5781 97.9004 20.5049 97.9395 20.4658C97.9883 20.417 98.0469 20.373 98.1152 20.334C98.3594 19.8164 98.6768 19.4062 99.0674 19.1035C99.4678 18.8008 99.8926 18.459 100.342 18.0781C100.439 18.0781 100.522 18.0439 100.591 17.9756C100.659 17.9072 100.742 17.8535 100.84 17.8145C100.957 17.707 101.069 17.6191 101.177 17.5508C101.265 17.4922 101.338 17.4141 101.396 17.3164C101.621 17.209 101.831 17.0625 102.026 16.877C102.231 16.6914 102.432 16.5254 102.627 16.3789C102.783 16.3398 102.949 16.3594 103.125 16.4375C103.203 16.5938 103.232 16.7598 103.213 16.9355C103.193 17.1113 103.096 17.209 102.92 17.2285C102.861 17.2871 102.798 17.3457 102.729 17.4043C102.661 17.4629 102.578 17.502 102.48 17.5215C102.285 17.5605 102.158 17.6387 102.1 17.7559C102.09 17.9414 102.065 18.0537 102.026 18.0928C101.987 18.1318 101.963 18.166 101.953 18.1953C101.738 18.5566 101.499 18.8691 101.235 19.1328C100.972 19.3867 100.723 19.6992 100.488 20.0703C100.381 20.1387 100.293 20.2461 100.225 20.3926C99.873 20.5879 99.6143 20.7393 99.4482 20.8467C99.2822 20.9541 99.1309 21.0859 98.9941 21.2422C98.877 21.3105 98.8184 21.3691 98.8184 21.418C98.8184 21.457 98.7988 21.4961 98.7598 21.5352C98.5645 21.7012 98.4521 21.8232 98.4229 21.9014C98.3936 21.9795 98.3496 22.043 98.291 22.0918C98.1934 22.1602 98.1055 22.2285 98.0273 22.2969C97.959 22.3555 97.9004 22.4092 97.8516 22.458C97.7344 22.5752 97.6074 22.6582 97.4707 22.707C97.3047 22.8438 97.0605 23.0049 96.7383 23.1904C96.416 23.3857 96.084 23.5322 95.7422 23.6299C95.4004 23.7373 95.1172 23.7422 94.8926 23.6445L94.6875 23.4834C94.6484 23.4541 94.5801 23.4102 94.4824 23.3516C94.3555 23.1953 94.2139 23.0635 94.0576 22.9561C93.9209 22.8584 93.7891 22.7168 93.6621 22.5312C93.5156 22.3262 93.4229 22.1162 93.3838 21.9014C93.3447 21.6768 93.2715 21.457 93.1641 21.2422C93.1152 20.7344 93.1543 20.3145 93.2812 19.9824C93.3887 19.6504 93.5059 19.3428 93.6328 19.0596C93.7598 18.7666 93.9014 18.498 94.0576 18.2539C94.3604 17.7852 94.5703 17.2285 94.6875 16.584C94.4727 16.3691 94.3506 16.1689 94.3213 15.9834C94.3115 15.8857 94.292 15.7734 94.2627 15.6465C94.2334 15.5195 94.1992 15.373 94.1602 15.207C93.6523 15.5391 93.1836 15.959 92.7539 16.4668C92.3242 16.9746 91.9434 17.4922 91.6113 18.0195L91.2598 18.6641C91.1621 18.8496 91.0449 19.0254 90.9082 19.1914C90.8105 19.2891 90.7617 19.3525 90.7617 19.3818C90.7617 19.4111 90.7422 19.4453 90.7031 19.4844C90.625 19.582 90.5615 19.665 90.5127 19.7334C90.4639 19.8018 90.4297 19.8555 90.4102 19.8945C90.3906 19.9336 90.3711 19.9727 90.3516 20.0117C90.332 20.041 90.3125 20.0703 90.293 20.0996C90.2344 20.1777 90.1855 20.2363 90.1465 20.2754C90.1074 20.3145 90.0586 20.373 90 20.4512C89.7266 20.8418 89.4775 21.208 89.2529 21.5498L88.5645 22.5898C88.457 22.7559 88.3691 22.9219 88.3008 23.0879C88.2324 23.2637 88.1348 23.4199 88.0078 23.5566C87.8125 23.5762 87.7002 23.5469 87.6709 23.4688C87.6416 23.3906 87.6465 23.3223 87.6855 23.2637C87.4512 23.1074 87.3193 22.8047 87.29 22.3555C87.2607 21.9062 87.3047 21.5449 87.4219 21.2715C87.3633 21.0957 87.3438 20.998 87.3633 20.9785C87.3828 20.959 87.3926 20.9297 87.3926 20.8906C87.6465 20.5391 87.9053 20.1875 88.1689 19.8359C88.4326 19.4844 88.7109 19.1523 89.0039 18.8398C89.0527 18.7715 89.1016 18.7031 89.1504 18.6348C89.1992 18.5664 89.2432 18.498 89.2822 18.4297C89.3799 18.2832 89.4824 18.1562 89.5898 18.0488C89.7559 17.7656 89.9561 17.4727 90.1904 17.1699C90.4248 16.877 90.6152 16.5742 90.7617 16.2617C90.8691 16.1543 90.9424 16.0469 90.9814 15.9395C91.0303 15.8223 91.1133 15.7246 91.2305 15.6465C91.2988 15.5293 91.3574 15.417 91.4062 15.3096C91.4648 15.1924 91.5137 15.0801 91.5527 14.9727C91.6113 14.7871 91.7188 14.6016 91.875 14.416C91.9141 14.2793 91.9629 14.1719 92.0215 14.0938C92.0801 14.0156 92.1582 13.9277 92.2559 13.8301C92.2656 13.7422 92.3193 13.6592 92.417 13.5811C92.5146 13.5029 92.5879 13.4199 92.6367 13.332C92.6855 13.1953 92.7344 13.1074 92.7832 13.0684C92.8418 13.0195 92.8711 12.9512 92.8711 12.8633C92.9688 12.7656 93.0664 12.6631 93.1641 12.5557C93.2617 12.4482 93.3496 12.3164 93.4277 12.1602C93.7012 12.0039 93.8916 11.9258 93.999 11.9258C94.1064 11.9258 94.1895 11.877 94.248 11.7793C94.3262 11.7793 94.4092 11.7793 94.4971 11.7793C94.5947 11.7793 94.6973 11.7744 94.8047 11.7646C95.0293 11.7451 95.1465 11.8184 95.1562 11.9844C95.166 12.0234 95.166 12.0723 95.1562 12.1309C95.1465 12.1602 95.1367 12.1895 95.127 12.2188C95.1172 12.248 95.1074 12.2773 95.0977 12.3066C95.1074 12.4824 95.1074 12.5752 95.0977 12.585C95.0781 12.6045 95.0684 12.6191 95.0684 12.6289C95.0488 12.707 95.0439 12.7754 95.0537 12.834C95.0635 12.8828 95.0684 12.9707 95.0684 13.0977C95.0586 13.1758 95.0488 13.2441 95.0391 13.3027C95.0293 13.3613 95.0195 13.415 95.0098 13.4639C94.9902 13.5615 95.0293 13.6738 95.127 13.8008C95.1758 13.8691 95.2344 13.9229 95.3027 13.9619C95.3711 14.001 95.4395 14.0645 95.5078 14.1523C95.5566 14.2012 95.5908 14.2598 95.6104 14.3281C95.6299 14.3965 95.6641 14.4551 95.7129 14.5039C95.752 14.5527 95.8105 14.6016 95.8887 14.6504C95.9668 14.6992 96.0254 14.7676 96.0645 14.8555C96.1719 14.9336 96.2061 14.9824 96.167 15.002C96.1377 15.0215 96.1816 15.0605 96.2988 15.1191C96.5234 15.4023 96.6895 15.7051 96.7969 16.0273C96.9238 16.2715 97.0312 16.4668 97.1191 16.6133C97.2168 16.7695 97.2168 16.9258 97.1191 17.082C97.0605 17.1406 96.9922 17.2578 96.9141 17.4336C96.8262 17.5215 96.748 17.6191 96.6797 17.7266C96.6406 17.7949 96.6113 17.8682 96.5918 17.9463C96.582 18.0146 96.5527 18.0781 96.5039 18.1367C96.3281 18.4199 96.1475 18.6738 95.9619 18.8984C95.7764 19.123 95.6152 19.3672 95.4785 19.6309C95.4883 20.1875 95.5957 20.5977 95.8008 20.8613C96.0352 21.1348 96.1816 21.2715 96.2402 21.2715C96.3672 21.291 96.5039 21.252 96.6504 21.1543L97.0312 20.9199C97.0703 20.9004 97.1045 20.8809 97.1338 20.8613C97.1729 20.8418 97.207 20.8223 97.2363 20.8027C97.2949 20.7637 97.3633 20.7344 97.4414 20.7148C97.6465 20.6465 97.7441 20.6221 97.7344 20.6416C97.7246 20.6709 97.7344 20.6855 97.7637 20.6855ZM110.742 20.4805C110.879 20.4805 110.977 20.4902 111.035 20.5098C111.094 20.5293 111.143 20.5391 111.182 20.5391C111.377 20.5391 111.626 20.4023 111.929 20.1289C112.241 19.8457 112.49 19.6309 112.676 19.4844C113.076 19.3965 113.398 19.1426 113.643 18.7227C113.896 18.293 114.18 17.9219 114.492 17.6094C114.893 17.209 115.215 16.8525 115.459 16.54C115.713 16.2178 115.928 16.0566 116.104 16.0566C116.26 16.0566 116.372 16.1299 116.44 16.2764C116.528 16.4521 116.592 16.5742 116.631 16.6426C116.592 16.6816 116.572 16.7402 116.572 16.8184C116.572 16.9062 116.553 16.9746 116.514 17.0234C116.475 17.082 116.416 17.1406 116.338 17.1992C116.26 17.2578 116.191 17.3262 116.133 17.4043L115.84 17.7559C115.586 18.0098 115.347 18.332 115.122 18.7227C114.897 19.1133 114.673 19.4844 114.448 19.8359C114.233 20.1777 114.004 20.4219 113.76 20.5684C113.242 20.9004 112.827 21.252 112.515 21.623C112.212 21.9844 111.875 22.2773 111.504 22.502C111.465 22.502 111.44 22.4971 111.431 22.4873C111.421 22.4775 111.406 22.4727 111.387 22.4727C111.299 22.4727 111.235 22.4922 111.196 22.5312C111.157 22.5703 111.104 22.5898 111.035 22.5898C110.674 22.4531 110.386 22.3018 110.171 22.1357C109.956 21.96 109.678 21.584 109.336 21.0078C109.248 20.8613 109.17 20.7002 109.102 20.5244C109.033 20.3291 108.955 20.1582 108.867 20.0117L108.472 19.2939C108.364 19.0986 108.311 18.7715 108.311 18.3125C108.311 18.1172 108.33 17.8242 108.369 17.4336C108.408 17.043 108.447 16.7305 108.486 16.4961C108.184 16.7988 107.905 17.1748 107.651 17.624C107.524 17.8389 107.402 18.0488 107.285 18.2539C107.168 18.459 107.051 18.6543 106.934 18.8398C106.621 19.3184 106.284 19.792 105.923 20.2607C105.571 20.71 105.391 21.0566 105.381 21.3008C105.264 21.418 105.137 21.5889 105 21.8135C104.863 22.0381 104.756 22.2334 104.678 22.3994C104.609 22.5557 104.609 22.5996 104.678 22.5312C104.404 22.9805 104.009 23.2979 103.491 23.4834C102.974 23.6689 102.49 23.7617 102.041 23.7617C101.953 23.752 101.865 23.7422 101.777 23.7324C101.689 23.7227 101.602 23.7129 101.514 23.7031C101.348 23.6934 101.182 23.625 101.016 23.498L100.576 23.1758C100.264 23.0195 100.049 22.7754 99.9316 22.4434C99.8145 22.1113 99.7559 21.75 99.7559 21.3594C100 20.7441 100.142 20.1924 100.181 19.7041C100.22 19.2256 100.332 18.752 100.518 18.2832C100.791 17.5605 101.177 16.916 101.675 16.3496C102.173 15.7832 102.695 15.2656 103.242 14.7969C103.682 14.4258 104.185 14.0205 104.751 13.5811C105.327 13.1318 105.742 12.7559 105.996 12.4531C106.309 12.4043 106.572 12.3115 106.787 12.1748C107.012 12.0283 107.236 11.8916 107.461 11.7646C107.686 11.6377 107.949 11.5742 108.252 11.5742C108.701 11.5742 108.965 11.6523 109.043 11.8086C109.121 11.9648 109.238 12.1797 109.395 12.4531C109.521 12.1309 109.619 11.8037 109.688 11.4717C109.727 11.3057 109.771 11.1445 109.819 10.9883C109.878 10.832 109.941 10.6855 110.01 10.5488C110.127 9.94336 110.327 9.29883 110.61 8.61523C110.894 7.93164 111.177 7.30176 111.46 6.72559C111.694 6.25684 111.924 5.8125 112.148 5.39258C112.383 4.96289 112.539 4.68945 112.617 4.57227C112.92 4.10352 113.247 3.70801 113.599 3.38574C113.94 3.06348 114.238 2.7168 114.492 2.3457C114.688 2.11133 114.878 1.84277 115.063 1.54004C115.259 1.20801 115.41 1.00781 115.518 0.939453C116.064 1.08594 116.353 1.30078 116.382 1.58398C116.411 1.86719 116.426 2.18945 116.426 2.55078C116.426 2.86328 116.396 3.17578 116.338 3.48828L115.342 5.56836C115.068 6.07617 114.81 6.59375 114.565 7.12109C114.321 7.64844 114.092 8.18555 113.877 8.73242C113.516 9.43555 113.12 10.0508 112.69 10.5781C112.476 10.8418 112.271 11.1152 112.075 11.3984C111.89 11.6816 111.709 11.9746 111.533 12.2773C111.465 12.4824 111.362 12.6826 111.226 12.8779C111.157 12.9756 111.094 13.0732 111.035 13.1709C110.977 13.2588 110.918 13.3516 110.859 13.4492L110.332 14.709C110.215 14.8652 110.156 15.0117 110.156 15.1484C110.195 15.2363 110.215 15.3145 110.215 15.3828V15.5293C110.215 15.6172 110.215 15.7051 110.215 15.793C110.215 15.8809 110.21 15.9688 110.2 16.0566C110.19 16.1445 110.186 16.2373 110.186 16.335C110.186 16.4229 110.186 16.5156 110.186 16.6133C110.186 17.6094 110.225 18.5859 110.303 19.543C110.264 19.6113 110.244 19.6602 110.244 19.6895C110.244 19.8262 110.317 19.9678 110.464 20.1143C110.61 20.251 110.703 20.373 110.742 20.4805ZM107.93 13.3613L107.197 13.8301C107.051 13.8789 106.855 14.0205 106.611 14.2549L105.996 14.8262L105.381 15.3828C105.244 15.6367 105.059 15.8516 104.824 16.0273C104.59 16.2031 104.395 16.3984 104.238 16.6133C104.023 16.8867 103.813 17.209 103.608 17.5801C103.403 17.9512 103.311 18.2637 103.33 18.5176C103.281 18.6934 103.228 18.8594 103.169 19.0156C103.12 19.1621 103.066 19.2988 103.008 19.4258C102.891 19.6699 102.832 19.9531 102.832 20.2754C102.832 20.5293 102.915 20.6611 103.081 20.6709C103.247 20.6807 103.369 20.6855 103.447 20.6855C103.74 20.4902 104.048 20.207 104.37 19.8359C104.702 19.4551 105 19.0645 105.264 18.6641C105.537 18.2637 105.723 17.9316 105.82 17.668C106.035 17.2969 106.279 16.9014 106.553 16.4814C106.826 16.0615 107.129 15.6855 107.461 15.3535L108.223 14.123C108.242 14.0742 108.262 14.0303 108.281 13.9912C108.301 13.9424 108.32 13.8984 108.34 13.8594C108.379 13.791 108.398 13.7031 108.398 13.5957C108.398 13.4688 108.359 13.3516 108.281 13.2441C108.203 13.2441 108.135 13.2588 108.076 13.2881C108.018 13.3174 107.969 13.3418 107.93 13.3613Z" fill="white"/>
</svg>
