<svg width="48" height="48" viewBox="0 0 48 48" fill="none" xmlns="http://www.w3.org/2000/svg">
<path fill-rule="evenodd" clip-rule="evenodd" d="M17 13.5857V13.4384C17 13.0025 17.2823 12.6169 17.6978 12.4852L33.6978 7.4127C34.3425 7.2083 35 7.68958 35 8.36595V27.9999C35 29.019 34.6951 29.9668 34.1716 30.7573L27.2426 23.8283C28.033 23.3047 28.9809 22.9999 30 22.9999C31.3627 22.9999 32.5981 23.545 33.5 24.4292V14.9999L21.9607 18.5464L17 13.5857ZM17 16.4141V28.9995C16.1643 28.3718 15.1256 27.9999 14 27.9999C11.2386 27.9999 9 30.2384 9 32.9999C9 35.7613 11.2386 37.9999 14 37.9999C16.7614 37.9999 19 35.7613 19 32.9999C19 32.818 18.9903 32.6384 18.9714 32.4616L19 32.4999V19.4564L19.7973 19.2114L17 16.4141ZM25.8284 25.2425C25.3049 26.0329 25 26.9808 25 27.9999C25 30.7613 27.2386 32.9999 30 32.9999C31.0191 32.9999 31.967 32.695 32.7574 32.1715L25.8284 25.2425Z" fill="white"/>
<path fill-rule="evenodd" clip-rule="evenodd" d="M10.2929 11.2929C10.6834 10.9024 11.3166 10.9024 11.7071 11.2929L35.7071 35.2929C36.0976 35.6834 36.0976 36.3166 35.7071 36.7071C35.3166 37.0976 34.6834 37.0976 34.2929 36.7071L10.2929 12.7071C9.90237 12.3166 9.90237 11.6834 10.2929 11.2929Z" fill="white"/>
</svg>
