<svg width="64" height="64" viewBox="0 0 64 64" fill="none" xmlns="http://www.w3.org/2000/svg">
<g clip-path="url(#clip0_686_542)">
<path d="M0 0H63.9761V63.9761H0L0 0Z" fill="black"/>
<path d="M35.4191 10.3188L35.4022 19.9092L35.3853 29.4995L34.5962 27.2732C34.596 27.2724 34.595 27.2696 34.5947 27.2688L33.5751 48.6195C34.5776 51.4504 35.1147 52.9617 35.1207 52.9677C35.1286 52.9756 35.6999 53.0101 36.3902 53.0443C38.4818 53.1481 41.0738 53.3705 43.04 53.6148C43.4952 53.6714 43.887 53.7003 43.9106 53.6792C43.9342 53.6581 43.9471 43.8933 43.9392 31.9798L43.9248 10.3188H39.6719H35.4191Z" fill="#B1060F" stroke="black" stroke-width="2.95622"/>
<path d="M20.0346 10.29V31.9729C20.0346 43.8986 20.0462 53.6676 20.0605 53.6819C20.0748 53.6962 20.8134 53.6265 21.7017 53.527C22.5901 53.4275 23.8179 53.3037 24.4302 53.2521C25.3691 53.1728 28.1727 52.9925 28.4973 52.9905C28.5917 52.9899 28.5978 52.5027 28.6115 43.8066L28.6259 34.6232L29.3043 36.5425C29.4091 36.8391 29.442 36.9317 29.5441 37.2207L30.5634 15.8753C30.3475 15.2647 30.4607 15.5852 30.2132 14.8854C29.3803 12.5306 28.6736 10.5334 28.6426 10.447L28.5862 10.29H24.3104H20.0346Z" fill="#B1060F" stroke="black" stroke-width="2.95622"/>
<path d="M20.0346 10.29L20.0346 22.4613L28.6086 45.2052C28.6095 44.684 28.6105 44.4023 28.6115 43.8066L28.6259 34.6232L29.3043 36.5425C33.0802 47.2268 35.1088 52.9555 35.1207 52.9674C35.1286 52.9753 35.6999 53.0098 36.3903 53.0441C38.4819 53.1478 41.0738 53.3703 43.04 53.6146C43.4952 53.6711 43.887 53.7001 43.9106 53.679C43.9268 53.6644 43.9374 48.8766 43.9402 42.1222L35.4063 17.5872L35.4022 19.9089L35.3853 29.4993L34.5963 27.2729C33.8253 25.0976 33.3105 23.6428 30.2132 14.8854C29.3803 12.5306 28.6736 10.5334 28.6426 10.447L28.5862 10.29H24.3105H20.0346Z" fill="url(#paint0_radial_686_542)"/>
<path d="M20.0347 10.29L28.6259 34.6343V34.6232L29.3043 36.5425C33.0802 47.2268 35.1088 52.9555 35.1207 52.9674C35.1286 52.9753 35.6999 53.0098 36.3902 53.0441C38.4818 53.1478 41.0738 53.3702 43.04 53.6146C43.4929 53.6708 43.8827 53.6997 43.9099 53.6792L35.3853 29.4948V29.4993L34.5962 27.2729C33.8253 25.0976 33.3105 23.6428 30.2132 14.8854C29.3803 12.5306 28.6736 10.5334 28.6426 10.447L28.5862 10.29H24.3104H20.0347Z" fill="#E50914"/>
<path d="M35.4191 10.3188L35.4022 19.9092L35.3853 29.4995L34.5962 27.2732C34.596 27.2724 34.595 27.2696 34.5947 27.2688L33.5751 48.6195C34.5776 51.4504 35.1147 52.9617 35.1207 52.9677C35.1286 52.9756 35.6999 53.0101 36.3902 53.0443C38.4818 53.1481 41.0738 53.3705 43.04 53.6148C43.4952 53.6714 43.887 53.7003 43.9106 53.6792C43.9342 53.6581 43.9471 43.8933 43.9392 31.9798L43.9248 10.3188H39.6719H35.4191Z" fill="#B1060F" stroke="black" stroke-width="2.95622"/>
<path d="M20.0346 10.29V31.9729C20.0346 43.8986 20.0462 53.6676 20.0605 53.6819C20.0748 53.6962 20.8134 53.6265 21.7017 53.527C22.5901 53.4275 23.8179 53.3037 24.4302 53.2521C25.3691 53.1728 28.1727 52.9925 28.4973 52.9905C28.5917 52.9899 28.5978 52.5027 28.6115 43.8066L28.6259 34.6232L29.3043 36.5425C29.4091 36.8391 29.442 36.9317 29.5441 37.2207L30.5634 15.8753C30.3475 15.2647 30.4607 15.5852 30.2132 14.8854C29.3803 12.5306 28.6736 10.5334 28.6426 10.447L28.5862 10.29H24.3104H20.0346Z" fill="#B1060F" stroke="black" stroke-width="2.95622"/>
<path d="M20.0346 10.29L20.0346 22.4613L28.6086 45.2052C28.6095 44.684 28.6105 44.4023 28.6115 43.8066L28.6259 34.6232L29.3043 36.5425C33.0802 47.2268 35.1088 52.9555 35.1207 52.9674C35.1286 52.9753 35.6999 53.0098 36.3903 53.0441C38.4819 53.1478 41.0738 53.3703 43.04 53.6146C43.4952 53.6711 43.887 53.7001 43.9106 53.679C43.9268 53.6644 43.9374 48.8766 43.9402 42.1222L35.4063 17.5872L35.4022 19.9089L35.3853 29.4993L34.5963 27.2729C33.8253 25.0976 33.3105 23.6428 30.2132 14.8854C29.3803 12.5306 28.6736 10.5334 28.6426 10.447L28.5862 10.29H24.3105H20.0346Z" fill="url(#paint1_radial_686_542)"/>
<path d="M20.0347 10.29L28.6259 34.6343V34.6232L29.3043 36.5425C33.0802 47.2268 35.1088 52.9555 35.1207 52.9674C35.1286 52.9753 35.6999 53.0098 36.3902 53.0441C38.4818 53.1478 41.0738 53.3702 43.04 53.6146C43.4929 53.6708 43.8827 53.6997 43.9099 53.6792L35.3853 29.4948V29.4993L34.5962 27.2729C33.8253 25.0976 33.3105 23.6428 30.2132 14.8854C29.3803 12.5306 28.6736 10.5334 28.6426 10.447L28.5862 10.29H24.3104H20.0347Z" fill="#E50914"/>
</g>
<rect x="0.5" y="0.5" width="63" height="63" rx="15.5" stroke="#A18BC4" stroke-opacity="0.73"/>
<defs>
<radialGradient id="paint0_radial_686_542" cx="0" cy="0" r="1" gradientUnits="userSpaceOnUse" gradientTransform="translate(31.5905 17.5378) scale(16.8387 16.8387)">
<stop/>
<stop offset="1" stop-opacity="0"/>
</radialGradient>
<radialGradient id="paint1_radial_686_542" cx="0" cy="0" r="1" gradientUnits="userSpaceOnUse" gradientTransform="translate(31.5905 17.5378) scale(16.8387 16.8387)">
<stop/>
<stop offset="1" stop-opacity="0"/>
</radialGradient>
<clipPath id="clip0_686_542">
<rect width="64" height="64" rx="16" fill="white"/>
</clipPath>
</defs>
</svg>
