<svg width="28" height="27" viewBox="0 0 28 27" fill="none" xmlns="http://www.w3.org/2000/svg">
<path d="M14.0001 26.8334C10.2964 26.8334 7.14823 25.5371 4.55562 22.9445C1.96304 20.3519 0.666748 17.2038 0.666748 13.5001C0.666748 9.79639 1.96304 6.64823 4.55562 4.05562C7.14823 1.46304 10.2964 0.166748 14.0001 0.166748C16.2131 0.166748 18.2038 0.618137 19.9723 1.52091C21.7408 2.42369 23.2686 3.67601 24.5557 5.27787V1.55562C24.5557 1.15748 24.6876 0.82647 24.9515 0.562581C25.2154 0.298692 25.5464 0.166748 25.9445 0.166748C26.3427 0.166748 26.6737 0.298692 26.9376 0.562581C27.2015 0.82647 27.3334 1.15748 27.3334 1.55562V9.72229C27.3334 10.1204 27.2015 10.4514 26.9376 10.7153C26.6737 10.9792 26.3427 11.1112 25.9445 11.1112H17.7779C17.3797 11.1112 17.0487 10.9792 16.7848 10.7153C16.5209 10.4514 16.389 10.1204 16.389 9.72229C16.389 9.32415 16.5209 8.99314 16.7848 8.72925C17.0487 8.46536 17.3797 8.33342 17.7779 8.33342H23.389C22.389 6.70378 21.0857 5.39822 19.4792 4.41675C17.8728 3.43525 16.0464 2.9445 14.0001 2.9445C11.0556 2.9445 8.56026 3.96765 6.51396 6.01396C4.46765 8.06026 3.4445 10.5556 3.4445 13.5001C3.4445 16.4445 4.46765 18.9399 6.51396 20.9862C8.56026 23.0325 11.0556 24.0557 14.0001 24.0557C16.0834 24.0557 17.9978 23.5024 19.7432 22.3959C21.4885 21.2894 22.7918 19.8057 23.6529 17.9445C23.7732 17.6945 23.97 17.4793 24.2432 17.2987C24.5163 17.1182 24.7918 17.0279 25.0695 17.0279C25.5973 17.0279 25.9839 17.2038 26.2292 17.5556C26.4746 17.9075 26.5001 18.3149 26.3056 18.7779C25.2686 21.213 23.639 23.1644 21.4167 24.632C19.1945 26.0996 16.7223 26.8334 14.0001 26.8334Z" fill="white"/>
</svg>
