<svg width="64" height="64" viewBox="0 0 64 64" fill="none" xmlns="http://www.w3.org/2000/svg">
<rect width="64" height="64" rx="16" fill="#FF153D"/>
<path d="M46.4652 0.116699C46.4958 0.666701 46.2321 1.15145 46.0696 1.64685C45.6901 2.80945 45.3265 3.97737 44.9523 5.14129C44.4037 6.85389 43.8297 8.55983 43.2797 10.2724C42.8669 11.5575 42.4713 12.8493 42.0691 14.1384L42.0811 14.1477C42.0505 14.1544 42.0185 14.1611 41.9879 14.1677C38.8677 14.1677 35.7488 14.1677 32.6286 14.1677C32.6192 14.1531 32.6073 14.1411 32.5939 14.1291C32.5993 12.4511 32.6059 10.7732 32.6086 9.09385C32.6126 6.10147 32.6126 3.10908 32.6139 0.116699H46.4652Z" fill="#FFFEFF"/>
<path d="M42.0691 14.1385C42.478 14.1452 42.8855 14.1572 43.2943 14.1572C47.428 14.1572 51.563 14.1572 55.6967 14.1572C55.9377 14.1572 56.1894 14.0733 56.0309 14.5261C55.2745 16.6861 54.558 18.8582 53.8256 21.0262C52.7149 24.3169 51.5963 27.6049 50.4923 30.897C49.6999 33.2594 48.8703 35.6086 48.1018 37.9804C47.3654 40.255 46.5491 42.5056 45.7753 44.7682C45.0442 46.9056 44.3211 49.0457 43.598 51.1858C43.309 52.0421 43.3143 52.0434 42.4194 52.0434C35.2321 52.0434 28.0448 52.0434 20.8574 52.0434C20.7695 52.0434 20.6817 52.0407 20.5951 52.0434C20.0695 52.0665 19.8067 51.8188 19.8067 51.3003C19.8067 43.1928 19.8067 35.0852 19.804 26.9777C19.804 26.5449 19.7415 26.1107 19.7415 25.6779C19.7415 25.4675 19.6269 25.4768 19.4951 25.4755C19.1741 25.4728 18.8519 25.4742 18.5309 25.4742C15.1124 25.4742 11.6938 25.4688 8.27531 25.4822C7.91974 25.4835 7.80654 25.4009 7.80787 25.0267C7.82252 21.5642 7.81853 18.1031 7.8132 14.6406C7.8132 14.3743 7.82252 14.1985 8.1701 14.2091C8.31659 14.2144 8.48039 14.1559 8.6402 14.1559C16.5427 14.1559 24.4464 14.1559 32.3489 14.1559C32.4075 14.1559 32.4661 14.1625 32.5233 14.1652C32.5486 14.1891 32.5753 14.2131 32.6006 14.2384C32.6059 15.9763 32.6152 17.7142 32.6152 19.4521C32.6166 25.9096 32.6152 32.3672 32.6152 38.8234C32.6152 39.3614 32.8723 39.7782 33.2292 39.8235C33.5008 39.8581 33.871 39.4946 34.0162 39.0418C34.5635 37.3372 35.1056 35.6312 35.6569 33.9293C36.2921 31.969 36.9433 30.014 37.5732 28.0511C38.5015 25.1572 39.4123 22.2567 40.3392 19.3629C40.8866 17.6516 41.4512 15.947 42.0079 14.2384C42.0318 14.2078 42.0558 14.1772 42.0811 14.1465L42.0691 14.1372V14.1385Z" fill="black"/>
<path d="M32.5992 14.2397C32.5739 14.2157 32.5473 14.1918 32.522 14.1665C32.5447 14.1505 32.5686 14.1386 32.5939 14.1279C32.6072 14.1399 32.6178 14.1519 32.6285 14.1665C32.6192 14.1918 32.6098 14.2157 32.6005 14.2397H32.5992Z" fill="#410511"/>
<path d="M32.5992 14.2397C32.6099 14.2158 32.6192 14.1918 32.6272 14.1665C35.7474 14.1665 38.8663 14.1665 41.9866 14.1665C41.9892 14.1918 41.9959 14.2158 42.0065 14.2384C41.4499 15.947 40.8852 17.6516 40.3379 19.3629C39.411 22.2581 38.5001 25.1572 37.5719 28.0511C36.942 30.014 36.2908 31.969 35.6556 33.9293C35.1042 35.6326 34.5622 37.3385 34.0149 39.0418C33.8697 39.4946 33.4995 39.8568 33.2278 39.8235C32.8709 39.7782 32.6139 39.3627 32.6139 38.8234C32.6139 32.3658 32.6139 25.9083 32.6139 19.4521C32.6139 17.7142 32.6046 15.9763 32.5992 14.2384V14.2397Z" fill="#01D8EC"/>
<path d="M42.0079 14.2395C41.9972 14.2169 41.9906 14.1929 41.9879 14.1677C42.0185 14.161 42.0504 14.1544 42.081 14.1477C42.0571 14.1783 42.0331 14.2089 42.0079 14.2395Z" fill="#410511"/>
<rect x="0.5" y="0.5" width="63" height="63" rx="15.5" stroke="#A18BC4" stroke-opacity="0.73"/>
</svg>
