<svg width="189" height="61" viewBox="0 0 189 61" fill="none" xmlns="http://www.w3.org/2000/svg">
<path d="M31.161 30.577C31.161 28.741 31.575 27.094 32.403 25.636C33.231 24.16 34.356 23.008 35.778 22.18C37.218 21.352 38.811 20.938 40.557 20.938C42.609 20.938 44.4 21.433 45.93 22.423C47.46 23.413 48.576 24.817 49.278 26.635H46.335C45.813 25.501 45.057 24.628 44.067 24.016C43.095 23.404 41.925 23.098 40.557 23.098C39.243 23.098 38.064 23.404 37.02 24.016C35.976 24.628 35.157 25.501 34.563 26.635C33.969 27.751 33.672 29.065 33.672 30.577C33.672 32.071 33.969 33.385 34.563 34.519C35.157 35.635 35.976 36.499 37.02 37.111C38.064 37.723 39.243 38.029 40.557 38.029C41.925 38.029 43.095 37.732 44.067 37.138C45.057 36.526 45.813 35.653 46.335 34.519H49.278C48.576 36.319 47.46 37.714 45.93 38.704C44.4 39.676 42.609 40.162 40.557 40.162C38.811 40.162 37.218 39.757 35.778 38.947C34.356 38.119 33.231 36.976 32.403 35.518C31.575 34.06 31.161 32.413 31.161 30.577ZM59.3884 40.243C58.0024 40.243 56.7424 39.928 55.6084 39.298C54.4924 38.668 53.6104 37.777 52.9624 36.625C52.3324 35.455 52.0174 34.105 52.0174 32.575C52.0174 31.063 52.3414 29.731 52.9894 28.579C53.6554 27.409 54.5554 26.518 55.6894 25.906C56.8234 25.276 58.0924 24.961 59.4964 24.961C60.9004 24.961 62.1694 25.276 63.3034 25.906C64.4374 26.518 65.3284 27.4 65.9764 28.552C66.6424 29.704 66.9754 31.045 66.9754 32.575C66.9754 34.105 66.6334 35.455 65.9494 36.625C65.2834 37.777 64.3744 38.668 63.2224 39.298C62.0704 39.928 60.7924 40.243 59.3884 40.243ZM59.3884 38.083C60.2704 38.083 61.0984 37.876 61.8724 37.462C62.6464 37.048 63.2674 36.427 63.7354 35.599C64.2214 34.771 64.4644 33.763 64.4644 32.575C64.4644 31.387 64.2304 30.379 63.7624 29.551C63.2944 28.723 62.6824 28.111 61.9264 27.715C61.1704 27.301 60.3514 27.094 59.4694 27.094C58.5694 27.094 57.7414 27.301 56.9854 27.715C56.2474 28.111 55.6534 28.723 55.2034 29.551C54.7534 30.379 54.5284 31.387 54.5284 32.575C54.5284 33.781 54.7444 34.798 55.1764 35.626C55.6264 36.454 56.2204 37.075 56.9584 37.489C57.6964 37.885 58.5064 38.083 59.3884 38.083ZM72.663 27.931C73.149 27.085 73.869 26.383 74.823 25.825C75.795 25.249 76.92 24.961 78.198 24.961C79.512 24.961 80.7 25.276 81.762 25.906C82.842 26.536 83.688 27.427 84.3 28.579C84.912 29.713 85.218 31.036 85.218 32.548C85.218 34.042 84.912 35.374 84.3 36.544C83.688 37.714 82.842 38.623 81.762 39.271C80.7 39.919 79.512 40.243 78.198 40.243C76.938 40.243 75.822 39.964 74.85 39.406C73.896 38.83 73.167 38.119 72.663 37.273V47.02H70.206V25.204H72.663V27.931ZM82.707 32.548C82.707 31.432 82.482 30.46 82.032 29.632C81.582 28.804 80.97 28.174 80.196 27.742C79.44 27.31 78.603 27.094 77.685 27.094C76.785 27.094 75.948 27.319 75.174 27.769C74.418 28.201 73.806 28.84 73.338 29.686C72.888 30.514 72.663 31.477 72.663 32.575C72.663 33.691 72.888 34.672 73.338 35.518C73.806 36.346 74.418 36.985 75.174 37.435C75.948 37.867 76.785 38.083 77.685 38.083C78.603 38.083 79.44 37.867 80.196 37.435C80.97 36.985 81.582 36.346 82.032 35.518C82.482 34.672 82.707 33.682 82.707 32.548ZM101.196 25.204L92.286 46.966H89.748L92.664 39.838L86.697 25.204H89.424L94.068 37.192L98.658 25.204H101.196ZM113.321 38.002H119.909V40H110.864V21.181H113.321V38.002ZM123.787 22.801C123.319 22.801 122.923 22.639 122.599 22.315C122.275 21.991 122.113 21.595 122.113 21.127C122.113 20.659 122.275 20.263 122.599 19.939C122.923 19.615 123.319 19.453 123.787 19.453C124.237 19.453 124.615 19.615 124.921 19.939C125.245 20.263 125.407 20.659 125.407 21.127C125.407 21.595 125.245 21.991 124.921 22.315C124.615 22.639 124.237 22.801 123.787 22.801ZM124.975 25.204V40H122.518V25.204H124.975ZM136.372 24.934C138.172 24.934 139.63 25.483 140.746 26.581C141.862 27.661 142.42 29.227 142.42 31.279V40H139.99V31.63C139.99 30.154 139.621 29.029 138.883 28.255C138.145 27.463 137.137 27.067 135.859 27.067C134.563 27.067 133.528 27.472 132.754 28.282C131.998 29.092 131.62 30.271 131.62 31.819V40H129.163V25.204H131.62V27.31C132.106 26.554 132.763 25.969 133.591 25.555C134.437 25.141 135.364 24.934 136.372 24.934ZM154.695 40L148.89 33.466V40H146.433V20.02H148.89V31.765L154.587 25.204H158.016L151.05 32.575L158.043 40H154.695Z" fill="white"/>
<rect x="0.5" y="0.5" width="188" height="60" rx="30" stroke="white"/>
</svg>
