<svg width="64" height="64" viewBox="0 0 64 64" fill="none" xmlns="http://www.w3.org/2000/svg">
<rect width="64" height="64" rx="16" fill="black"/>
<path d="M10 19.6866C10.3022 19.672 10.5621 19.6486 10.8205 19.6486C13.9595 19.6457 17.0985 19.6588 20.2361 19.6369C20.7938 19.6326 21.0347 19.7552 21.1237 20.3699C22.1224 27.2435 23.1531 34.1143 24.1941 40.9821C24.2248 41.1836 24.4671 41.353 24.6102 41.5369C24.7387 41.3661 24.9548 41.2084 24.984 41.0216C26.0688 34.1128 27.1433 27.2012 28.196 20.2866C28.2719 19.7873 28.4617 19.6384 28.942 19.6428C30.9364 19.6618 32.9322 19.6676 34.9266 19.6413C35.4434 19.634 35.6274 19.8078 35.7354 20.3144C37.1253 26.7982 38.5415 33.2748 39.9534 39.7528C40.0088 40.0039 40.0818 40.2521 40.1475 40.5018L40.3768 40.5427C40.4571 40.3427 40.5943 40.1456 40.6074 39.9412C40.9199 35.4312 41.2119 30.9184 41.5214 26.4084C41.8981 20.9276 42.2806 15.4467 42.6879 9.96882C42.7025 9.77756 42.9945 9.45344 43.1581 9.45198C46.6372 9.42862 50.115 9.44322 53.5941 9.45344C53.6379 9.45344 53.6803 9.48994 53.835 9.56002C53.6701 10.6185 53.5095 11.7121 53.327 12.8012C52.4714 17.9025 51.6071 23.0008 50.7486 28.102C49.5923 34.9757 48.4403 41.8508 47.2884 48.7245C47.1482 49.5626 46.9862 50.3991 46.8898 51.243C46.8256 51.8037 46.5482 52.0197 46.0138 52.0796C43.9143 52.3147 41.8163 52.5745 39.7198 52.8286C38.7065 52.9512 37.6918 53.0622 36.6844 53.2111C36.2362 53.2783 36.023 53.1834 35.9369 52.6957C34.9806 47.2426 34.0024 41.7924 33.033 36.3408C32.9176 35.6955 32.8388 35.0414 32.684 34.4063C32.6417 34.2296 32.3906 34.1041 32.2343 33.9552C32.1219 34.1114 31.9307 34.2574 31.9088 34.4253C31.4605 37.7964 31.0328 41.1705 30.6006 44.5431C30.2108 47.5799 29.8122 50.6152 29.4428 53.6535C29.3903 54.0871 29.161 54.1382 28.8194 54.1791C26.1184 54.5017 23.4189 54.8375 20.7179 55.166C19.7528 55.2828 18.7848 55.3792 17.8227 55.5091C16.8664 55.6376 16.8781 55.6493 16.6897 54.6609C15.894 50.5116 15.0939 46.3652 14.2924 42.2173C12.8791 34.8969 11.4658 27.5779 10.054 20.2574C10.0234 20.0968 10.0234 19.9289 10.0015 19.6895L10 19.6866Z" fill="#FE0557"/>
<rect x="0.5" y="0.5" width="63" height="63" rx="15.5" stroke="#A18BC4" stroke-opacity="0.73"/>
</svg>
