<svg width="64" height="64" viewBox="0 0 64 64" fill="none" xmlns="http://www.w3.org/2000/svg">
<rect width="64" height="64" rx="16" fill="#0051FD"/>
<path d="M32.3719 36.7146C31.3384 41.4979 31.3213 46.211 32.2492 50.9914C31.9936 50.9914 31.7966 50.9914 31.5997 50.9914C28.405 50.9914 25.2103 50.9843 22.0156 51C21.663 51.0014 21.4717 50.867 21.2805 50.6009C17.2122 44.9337 14.5514 38.6628 13.2624 31.8084C12.4444 27.46 12.3231 23.0787 12.7156 18.6774C12.7784 17.9751 12.8912 17.277 12.9626 16.5761C12.9854 16.3444 13.0639 16.25 13.3066 16.25C16.674 16.2557 20.0414 16.2543 23.4088 16.2572C23.4488 16.2572 23.4888 16.2772 23.5901 16.3029C22.2883 23.2503 22.7265 30.0876 24.9591 36.7976C25.0219 34.1242 25.3759 31.4908 26.0254 28.9004C26.8219 25.7235 28.0567 22.7268 29.714 19.9018C29.8696 19.6372 30.0351 19.5227 30.3549 19.5242C32.9743 19.537 35.5937 19.5299 38.2117 19.5313C38.3373 19.5313 38.4615 19.5485 38.6371 19.5599C38.196 22.5065 38.0946 25.4303 38.3887 28.3669C38.6799 31.2863 39.3308 34.117 40.3543 36.9292C40.4457 36.0223 40.5128 35.1798 40.6198 34.3431C41.1223 30.4138 42.3428 26.7162 44.2242 23.2346C44.3812 22.9442 44.5582 22.8098 44.9194 22.8126C48.244 22.8312 51.5686 22.8227 54.8917 22.8227C54.9759 22.8227 55.0601 22.8227 55.25 22.8227C49.897 30.5954 47.5217 39.1406 48.0384 48.544C47.8657 48.5569 47.7001 48.5812 47.5359 48.5812C44.3127 48.5826 41.0895 48.5726 37.8648 48.5912C37.4766 48.5941 37.2739 48.4525 37.0769 48.1435C34.8914 44.7105 33.3312 41.0187 32.4576 37.0393C32.439 36.9564 32.4133 36.8748 32.3676 36.7104L32.3719 36.7146Z" fill="white"/>
<rect x="0.5" y="0.5" width="63" height="63" rx="15.5" stroke="#A18BC4" stroke-opacity="0.73"/>
</svg>
